<svg xmlns="http://www.w3.org/2000/svg" xmlns:xlink="http://www.w3.org/1999/xlink" xmlns:lucid="lucid" width="3638.35" height="2480"><g transform="translate(-40.000000000000085 -1.4210854715202004e-14)" lucid:page-tab-id="0_0"><path d="M0 0h3677.73v2581.67H0z" fill="#fff"/><path d="M3088.2 349.6h240v60h-240z" fill="none"/><use xlink:href="#a" transform="matrix(1,0,0,1,3088.185431467372,349.60529720401786) translate(-65.18518518518519 88.8888888888889)"/><path d="M1133.5 20h102.17v77.7H1133.5z" fill="none"/><use xlink:href="#b" transform="matrix(1,0,0,1,1133.5137617291389,20.000000000000014) translate(21.47884114583337 55.69335937499993)"/><path d="M3141.43 531.38h477.8v98.25h-477.8z" fill="none"/><use xlink:href="#c" transform="matrix(1,0,0,1,3141.4344217985313,531.3775812344719) translate(0 60.16666666666667)"/><use xlink:href="#d" transform="matrix(1,0,0,1,3141.4344217985313,531.3775812344719) translate(281.1851851851852 60.16666666666667)"/><g stroke="#3a414a" stroke-width="4"><path d="M249.25 752.85c-36.2 0-65.8-28.96-65.8-64.36s29.6-64.38 65.8-64.38c36.2 0 65.8 28.97 65.8 64.37 0 35.4-29.6 64.35-65.8 64.35zm65.8-64.36h16.45m-148.05 0H167" fill="#fff"/><path d="M216.35 680.44v16.1m65.8-16.1v16.1m8.23-8.05h-16.45" fill="none"/></g><use xlink:href="#e" transform="matrix(6.123233995736766e-17,1,-1,6.123233995736766e-17,315.05291970388646,744.8041417362368) translate(10.583333333333371 47.99999999999994)"/><path d="M353.9 634.85h219.36v107.27H353.9z" fill="none"/><path d="M353.9 688.5h49.37l10.96-16.1 16.45 32.18 16.45-32.2 16.46 32.2 16.44-32.2 16.45 32.2 16.44-32.2 16.45 32.2 10.96-16.1h32.9" stroke="#1071e5" stroke-width="4" fill="none"/><use xlink:href="#f" transform="matrix(1,0,0,1,353.9133391228021,726.0314913092357) translate(75.00000000000004 47.99999999999994)"/><g fill="none"><path d="M142.25 634.85v107.27H60V634.85z"/><path d="M142.25 688.5H125.8zm-16.45-53.65v107.27m-16.45-16.1v-75.08m-16.45 16.1v42.9m-16.45-32.18v21.45M60 693.86v-10.73" stroke="#3a414a" stroke-width="4"/></g><path d="M573.26 956.67h109.67v80.45H573.26z" fill="none"/><path d="M628.1 956.67v16.1zm-54.84 16.1h109.67m-16.45 16.08H589.7m16.46 16.1h43.87m-32.9 16.08h21.93m-5.48 16.1H622.6" stroke="#3a414a" stroke-width="4" fill="none"/><path d="M693.9 822.58c0 35.4-29.6 64.36-65.8 64.36-36.2 0-65.8-28.96-65.8-64.36s29.6-64.37 65.8-64.37c36.2 0 65.8 28.98 65.8 64.38zm-65.8-64.37v-16.08m0 144.82v16.1" stroke="#3a414a" stroke-width="4" fill="#fff"/><path d="M628.1 854.76v-57.93h3.28-6.58l3.3-6.44 3.28 6.43h-3.28" stroke="#3a414a" stroke-width="4" fill="none"/><use xlink:href="#g" transform="matrix(1,0,0,1,685.6727764599816,758.2131777555236) translate(6.500000000000043 47.99999999999994)"/><path d="M631.52 688.5c0 1.84-1.53 3.34-3.42 3.34-1.9 0-3.43-1.5-3.43-3.35 0-1.87 1.53-3.37 3.43-3.37 1.9 0 3.42 1.5 3.42 3.36z" stroke="#3a414a" stroke-width="4"/><path d="M628.1 956.67" stroke="#3a414a" stroke-width="4" fill="none"/><path stroke="#3a414a" stroke-width=".05" fill="#3a414a"/><path stroke="#3a414a" stroke-width=".05" fill="#3a414a"/><path d="M144.25 688.5H165" stroke="#3a414a" stroke-width="4" fill="none"/><path d="M144.3 690.5h-2.05v-4h2.06zM167 690.5h-2.06v-4H167z" stroke="#3a414a" stroke-width=".05" fill="#3a414a"/><path d="M333.5 688.5h18.4" stroke="#3a414a" stroke-width="4" fill="none"/><path d="M333.56 690.5h-2.06v-4h2.06zM353.9 690.5h-2.04v-4h2.05z" stroke="#3a414a" stroke-width=".05" fill="#3a414a"/><path d="M573.26 688.5" stroke="#3a414a" stroke-width="4" fill="none"/><path stroke="#3a414a" stroke-width=".05" fill="#3a414a"/><path stroke="#3a414a" stroke-width=".05" fill="#3a414a"/><path d="M575.26 688.5h45.24" stroke="#3a414a" stroke-width="4" fill="none"/><path d="M575.3 690.5h-2.04v-4h2.05zM622.5 688.5l.84 2h-2.9v-4h2.9z" stroke="#3a414a" stroke-width=".05" fill="#3a414a"/><path d="M628.1 740.12V696" stroke="#3a414a" stroke-width="4" fill="none"/><path d="M626.1 742.12v-2.05h4v2.05zM628.1 694l2-.8v2.85h-4v-2.86z" stroke="#3a414a" stroke-width=".05" fill="#3a414a"/><path d="M628.1 905.03v49.64" stroke="#3a414a" stroke-width="4" fill="none"/><path d="M630.1 905.08h-4v-2.05h4zM630.1 956.67h-4v3-5.05h4z" stroke="#3a414a" stroke-width=".05" fill="#3a414a"/><path d="M710.35 634.85H929.7v107.27H710.34z" fill="none"/><path d="M710.35 688.5h49.35l10.97-16.1 16.45 32.18 16.45-32.2 16.45 32.2 16.45-32.2 16.45 32.2 16.45-32.2 16.46 32.2 10.96-16.1h32.9" stroke="#ba23f6" stroke-width="4" fill="none"/><use xlink:href="#h" transform="matrix(1,0,0,1,710.3490982453918,726.0314913092357) translate(75.00000000000004 47.99999999999994)"/><path d="M708.35 688.5H635.7" stroke="#3a414a" stroke-width="4" fill="none"/><path d="M710.35 690.5h-2.05v-4h2.05zM635.75 690.5h-2.9l.84-2-.85-2h2.9z" stroke="#3a414a" stroke-width=".05" fill="#3a414a"/><path d="M1166.52 602.37c0 2.04-1.68 3.7-3.76 3.7s-3.76-1.66-3.76-3.7 1.68-3.7 3.76-3.7 3.76 1.66 3.76 3.7z" stroke="#3a414a" stroke-width="4"/><path d="M931.7 688.5h188.88a6 6 0 0 0 6-6v-74.13a6 6 0 0 1 6-6h22.25" stroke="#3a414a" stroke-width="4" fill="none"/><path d="M931.75 690.5h-2.06v-4h2.04zM1156.83 602.37l.84 2h-2.9v-4h2.9z" stroke="#3a414a" stroke-width=".05" fill="#3a414a"/><path d="M1316.02 510h240.76v118.23h-240.76z" fill="none"/><path d="M1316.02 569.12h54.17l12.03-17.74 18.05 35.47 18.06-35.47 18.06 35.47 18.05-35.47 18.06 35.47 18.07-35.47 18.06 35.47 12.04-17.73h36.1" stroke="#cc4e00" stroke-width="4" fill="none"/><use xlink:href="#i" transform="matrix(1,0,0,1,1316.0151411355046,610.4970894436397) translate(73.8333333333334 47.99999999999994)"/><path d="M1314.02 569.12h-109.08a6 6 0 0 0-6 6v21.25a6 6 0 0 1-6 6h-22.25" stroke="#3a414a" stroke-width="4" fill="none"/><path d="M1316.02 571.12h-2.06v-4h2.06zM1170.74 604.37h-2.9l.85-2-.85-2h2.9z" stroke="#3a414a" stroke-width=".05" fill="#3a414a"/><g fill="none"><path d="M1102.57 953.37V716.9h120.38v236.47z"/><path d="M1162.76 953.37v-53.2l-18.06-11.83 36.12-17.73-36.12-17.73 36.12-17.73-36.12-17.74 36.12-17.73-36.12-17.74 36.12-17.73-18.06-11.82V716.9" stroke="#cc4e00" stroke-width="4"/></g><use xlink:href="#j" transform="matrix(6.123233995736766e-17,-1,1,6.123233995736766e-17,1204.8936973297086,953.3727593155552) translate(71.8333333333334 47.99999999999994)"/><path d="M1162.76 714.9V610.23" stroke="#3a414a" stroke-width="4" fill="none"/><path d="M1160.76 716.9v-2.04h4v2.05zM1164.76 610.27h-4v-2.86l2 .82 2-.8z" stroke="#3a414a" stroke-width=".05" fill="#3a414a"/><path d="M1620.73 569.12c0 2.04-1.68 3.7-3.76 3.7s-3.76-1.66-3.76-3.7 1.7-3.7 3.77-3.7c2.08 0 3.76 1.66 3.76 3.7z" stroke="#3a414a" stroke-width="4"/><path d="M1734.57 510h240.76v118.23h-240.76z" fill="none"/><path d="M1734.57 569.12h54.17l12.04-17.74 18.06 35.47 18.05-35.47 18.05 35.47 18.06-35.47 18.07 35.47 18.05-35.47 18.06 35.47 12.04-17.73h36.1" stroke="#cc4e00" stroke-width="4" fill="none"/><use xlink:href="#k" transform="matrix(1,0,0,1,1734.5681297138926,610.4970894436397) translate(73.8333333333334 47.99999999999994)"/><path d="M1732.57 569.12H1624.9" stroke="#3a414a" stroke-width="4" fill="none"/><path d="M1734.57 571.12h-2.05v-4h2.05zM1624.96 571.12h-2.9l.85-2-.84-2h2.9z" stroke="#3a414a" stroke-width=".05" fill="#3a414a"/><g fill="none"><path d="M1556.78 953.37V716.9h120.38v236.47z"/><path d="M1616.97 953.37v-53.2l-18.06-11.83 36.13-17.73-36.12-17.73 36.13-17.73-36.12-17.74 36.13-17.73-36.12-17.74 36.13-17.73-18.06-11.82V716.9" stroke="#cc4e00" stroke-width="4"/></g><use xlink:href="#l" transform="matrix(6.123233995736766e-17,-1,1,6.123233995736766e-17,1659.105979709213,953.3727593155552) translate(71.8333333333334 47.99999999999994)"/><path d="M1616.97 714.9V576.98" stroke="#3a414a" stroke-width="4" fill="none"/><path d="M1614.97 716.9v-2.04h4v2.05zM1616.97 574.97l2-.8V577h-4v-2.86z" stroke="#3a414a" stroke-width=".05" fill="#3a414a"/><path d="M1558.78 569.12h50.26" stroke="#3a414a" stroke-width="4" fill="none"/><path d="M1558.83 571.12h-2.05v-4h2.05zM1611.04 569.12l.84 2h-2.9v-4h2.9z" stroke="#3a414a" stroke-width=".05" fill="#3a414a"/><g stroke="#3a414a" stroke-width="4"><path d="M742.14 165.43c-36.2 0-65.8-28.96-65.8-64.36s29.6-64.37 65.8-64.37c36.2 0 65.8 28.97 65.8 64.37 0 35.4-29.6 64.36-65.8 64.36zm65.8-64.36h16.46m-148.06 0H659.9" fill="#fff"/><path d="M709.24 93.02v16.1m65.8-16.1v16.1m8.23-8.05h-16.45" fill="none"/></g><use xlink:href="#e" transform="matrix(6.123233995736766e-17,1,-1,6.123233995736766e-17,807.9458827997148,157.3842510373663) translate(10.583333333333371 47.99999999999994)"/><path d="M906.65 47.43H1126V154.7H906.65z" fill="none"/><path d="M906.65 101.07H956l10.97-16.1 16.45 32.2 16.45-32.2 16.45 32.2 16.46-32.2 16.44 32.2 16.46-32.2 16.45 32.2 10.96-16.1h32.9" stroke="#1071e5" stroke-width="4" fill="none"/><use xlink:href="#m" transform="matrix(1,0,0,1,906.6511699413549,138.61160061036517) translate(75.00000000000004 47.99999999999994)"/><g fill="none"><path d="M605.05 47.43V154.7H522.8V47.43z"/><path d="M605.05 101.07H588.6zM588.6 47.43V154.7m-16.45-16.1V63.53m-16.45 16.1v42.9m-16.45-32.18v21.45m-16.45-5.37V95.7" stroke="#3a414a" stroke-width="4"/></g><path d="M1126 369.25h109.67v80.45H1126z" fill="none"/><path d="M1180.83 369.25v16.1zm-54.83 16.1h109.67m-16.45 16.08h-76.77m16.45 16.1h43.87m-32.9 16.08h21.93m-5.48 16.1h-10.97" stroke="#3a414a" stroke-width="4" fill="none"/><path d="M1246.64 235.16c0 35.4-29.62 64.36-65.8 64.36-36.2 0-65.8-28.96-65.8-64.36s29.6-64.37 65.8-64.37c36.18 0 65.8 28.96 65.8 64.36zm-65.8-64.37v-16.1m0 144.82v16.1" stroke="#3a414a" stroke-width="4" fill="#fff"/><path d="M1180.83 267.34V209.4h3.3-6.6l3.3-6.43 3.3 6.44h-3.3" stroke="#3a414a" stroke-width="4" fill="none"/><use xlink:href="#n" transform="matrix(1,0,0,1,1238.4106072785348,170.7932870566529) translate(6.500000000000043 47.99999999999994)"/><path d="M1184.26 101.07c0 1.85-1.54 3.35-3.43 3.35-1.9 0-3.42-1.5-3.42-3.35s1.54-3.36 3.43-3.36c1.9 0 3.43 1.52 3.43 3.37z" stroke="#3a414a" stroke-width="4"/><path d="M1180.83 369.25" stroke="#3a414a" stroke-width="4" fill="none"/><path stroke="#3a414a" stroke-width=".05" fill="#3a414a"/><path stroke="#3a414a" stroke-width=".05" fill="#3a414a"/><path d="M607.05 101.07h50.84" stroke="#3a414a" stroke-width="4" fill="none"/><path d="M607.1 103.07h-2.05v-4h2.05zM659.9 103.07h-2.06v-4h2.05z" stroke="#3a414a" stroke-width=".05" fill="#3a414a"/><path d="M826.4 101.07h78.25" stroke="#3a414a" stroke-width="4" fill="none"/><path d="M826.45 103.07h-2.05v-4h2.05zM906.65 103.07h-2.05v-4h2.05z" stroke="#3a414a" stroke-width=".05" fill="#3a414a"/><path d="M1126 101.07" stroke="#3a414a" stroke-width="4" fill="none"/><path stroke="#3a414a" stroke-width=".05" fill="#3a414a"/><path stroke="#3a414a" stroke-width=".05" fill="#3a414a"/><path d="M1128 101.07h45.23" stroke="#3a414a" stroke-width="4" fill="none"/><path d="M1128.05 103.07H1126v-4h2.05zM1175.23 101.07l.85 2h-2.9v-4h2.9z" stroke="#3a414a" stroke-width=".05" fill="#3a414a"/><path d="M1180.83 152.7v-44.12" stroke="#3a414a" stroke-width="4" fill="none"/><path d="M1178.83 154.7v-2.05h4v2.05zM1180.83 106.58l2-.8v2.85h-4v-2.86z" stroke="#3a414a" stroke-width=".05" fill="#3a414a"/><path d="M1180.83 317.6v49.65" stroke="#3a414a" stroke-width="4" fill="none"/><path d="M1182.83 317.66h-4v-2.05h4zM1178.83 369.25v-2.05h4v2.05z" stroke="#3a414a" stroke-width=".05" fill="#3a414a"/><path d="M1263.1 47.43h219.33V154.7H1263.1z" fill="none"/><path d="M1263.1 101.07h49.34l10.97-16.1 16.46 32.2 16.45-32.2 16.46 32.2 16.45-32.2 16.46 32.2 16.45-32.2 16.46 32.2 10.97-16.1h32.9" stroke="#ba23f6" stroke-width="4" fill="none"/><use xlink:href="#o" transform="matrix(1,0,0,1,1263.0869290639448,138.61160061036517) translate(75.00000000000004 47.99999999999994)"/><path d="M1260.6 101.07h-71.67" stroke="#3a414a" stroke-width="5" fill="none"/><path d="M1266.1 99.07h-3v4h3v.5h-5.58v-5h5.57zM1189 103.57h-3.63l1.06-2.5-1.06-2.5h3.63z" stroke="#3a414a" stroke-width=".05" fill="#3a414a"/><path d="M1484.43 101.07h52.2a6 6 0 0 1 6 6v386.57a6 6 0 0 0 6 6h62.34a6 6 0 0 1 6 6v55.62" stroke="#3a414a" stroke-width="4" fill="none"/><path d="M1484.48 103.07h-2.05v-4h2.05zM1618.97 564.08l-2-.82-2 .82v-2.87h4z" stroke="#3a414a" stroke-width=".05" fill="#3a414a"/><g stroke="#3a414a" stroke-width="4"><path d="M2580.1 73.93c36.2 0 65.82 28.96 65.82 64.36s-29.62 64.35-65.8 64.35c-36.2 0-65.8-28.96-65.8-64.36s29.6-64.37 65.8-64.37zm-65.8 64.36h-16.44m148.06 0h16.45" fill="#fff"/><path d="M2613 146.34v-16.1m-65.8 16.1v-16.1m-8.2 8.05h16.44" fill="none"/></g><use xlink:href="#e" transform="matrix(6.123233995736766e-17,-1,1,6.123233995736766e-17,2514.308727238868,275.06326448713935) translate(10.583333333333371 47.99999999999994)"/><path d="M2220.02 84.66h219.34v107.27h-219.34z" fill="none"/><path d="M2220.02 138.3h49.35l10.97-16.1 16.45 32.18 16.44-32.18 16.45 32.18 16.44-32.18 16.45 32.18 16.44-32.18 16.45 32.18 10.96-16.1h32.9" stroke="#1071e5" stroke-width="4" fill="none"/><use xlink:href="#p" transform="matrix(1,0,0,1,2220.017614574161,175.83639794441933) translate(75.00000000000004 47.99999999999994)"/><g fill="none"><path d="M2708.53 191.93V84.65h82.25v107.28z"/><path d="M2708.53 138.3h16.45zm16.45 53.63V84.65m16.45 16.1v75.1m16.45-16.1v-42.9m16.45 32.17v-21.46m16.45 5.37v10.72" stroke="#3a414a" stroke-width="4"/></g><path d="M2113.95 430.04h109.67v80.45h-109.67z" fill="none"/><path d="M2168.78 430.04v16.1zm-54.84 16.1h109.68m-16.45 16.08h-76.77m16.45 16.1h43.87m-32.9 16.08h21.93m-5.5 16.1h-10.95" stroke="#3a414a" stroke-width="4" fill="none"/><path d="M2232.78 310.98c0 35.4-29.6 64.37-65.8 64.37-36.2 0-65.8-28.97-65.8-64.37 0-35.4 29.6-64.36 65.8-64.36 36.2 0 65.8 28.96 65.8 64.36zm-65.8-64.36v-16.1m0 144.83v16.1" stroke="#3a414a" stroke-width="4" fill="#fff"/><path d="M2166.98 343.16v-57.92h3.3-6.6l3.3-6.44 3.3 6.44h-3.3" stroke="#3a414a" stroke-width="4" fill="none"/><use xlink:href="#q" transform="matrix(1,0,0,1,2224.5592276294965,246.6184982486678) translate(6.500000000000043 47.99999999999994)"/><path d="M2170.4 138.3c0 1.84-1.53 3.34-3.42 3.34-1.9 0-3.43-1.5-3.43-3.35 0-1.86 1.54-3.36 3.43-3.36 1.9 0 3.43 1.5 3.43 3.35z" stroke="#3a414a" stroke-width="4"/><path d="M2168.78 430.04" stroke="#3a414a" stroke-width="4" fill="none"/><path stroke="#3a414a" stroke-width=".05" fill="#3a414a"/><path stroke="#3a414a" stroke-width=".05" fill="#3a414a"/><path d="M2706.53 138.3h-42.16" stroke="#3a414a" stroke-width="4" fill="none"/><path d="M2708.53 140.3h-2.05v-4h2.05zM2664.42 140.3h-2.05v-4h2.05z" stroke="#3a414a" stroke-width=".05" fill="#3a414a"/><path d="M2495.86 138.3H2441.37" stroke="#3a414a" stroke-width="4" fill="none"/><path d="M2497.86 140.3h-2.05v-4h2.06zM2441.4 140.3h-2.04v-4h2.05z" stroke="#3a414a" stroke-width=".05" fill="#3a414a"/><path d="M2439.36 138.3" stroke="#3a414a" stroke-width="4" fill="none"/><path stroke="#3a414a" stroke-width=".05" fill="#3a414a"/><path stroke="#3a414a" stroke-width=".05" fill="#3a414a"/><path d="M2218.02 138.3h-43.44" stroke="#3a414a" stroke-width="4" fill="none"/><path d="M2220.02 140.3h-2.05v-4h2.05zM2174.63 140.3h-2.9l.85-2-.85-2h2.9z" stroke="#3a414a" stroke-width=".05" fill="#3a414a"/><path d="M2166.98 228.53V145.8" stroke="#3a414a" stroke-width="4" fill="none"/><path d="M2168.98 230.53h-4v3-5.05h4zM2166.98 143.8l2-.8v2.85h-4V143z" stroke="#3a414a" stroke-width=".05" fill="#3a414a"/><path d="M2166.98 393.44v16.4a.9.9 0 0 0 .9.9.9.9 0 0 1 .9.9v16.4" stroke="#3a414a" stroke-width="4" fill="none"/><path d="M2164.98 391.44h4v2.05h-4v-5.06zM2166.78 430.04v-2.06h4v2.06z" stroke="#3a414a" stroke-width=".05" fill="#3a414a"/><path d="M1894.6 84.66h219.35v107.27H1894.6z" fill="none"/><path d="M1894.6 138.3h49.35l10.97-16.1 16.45 32.18 16.45-32.18 16.45 32.18 16.45-32.18 16.45 32.18 16.45-32.18 16.46 32.18 10.96-16.1h32.9" stroke="#ba23f6" stroke-width="4" fill="none"/><use xlink:href="#r" transform="matrix(1,0,0,1,1894.5995898159395,175.83639794441933) translate(75.00000000000004 47.99999999999994)"/><path d="M2115.95 138.3h43.43" stroke="#3a414a" stroke-width="4" fill="none"/><path d="M2116 140.3h-2.05v-4h2.05zM2161.38 138.3l.85 2h-2.9v-4h2.9z" stroke="#3a414a" stroke-width=".05" fill="#3a414a"/><path d="M1892.6 138.3h-41.12a6 6 0 0 0-6 6V371a6 6 0 0 0 6 6h200.06a6 6 0 0 1 6 6v178.6" stroke="#3a414a" stroke-width="4" fill="none"/><path d="M1894.6 140.3h-2.05v-4h2.05zM2059.54 564.42l-2-.82-2 .82v-2.87h4z" stroke="#3a414a" stroke-width=".05" fill="#3a414a"/><path d="M1977.33 569.12h36.18a.03.03 0 0 1 .03.02.03.03 0 0 0 .03.03h36.17" stroke="#3a414a" stroke-width="4" fill="none"/><path d="M1977.38 571.12h-2.05v-4h2.06zM2051.6 569.46l.73 1.7h-2.65v-4h2.9z" stroke="#3a414a" stroke-width=".05" fill="#3a414a"/><g fill="none"><path d="M1997.35 953.37V716.9h120.38v236.47z"/><path d="M2057.54 953.37v-53.2l-18.06-11.83 36.12-17.73-36.12-17.72 36.12-17.74-36.12-17.73 36.12-17.73-36.12-17.73 36.12-17.74-18.06-11.82V716.9" stroke="#cc4e00" stroke-width="4"/></g><use xlink:href="#s" transform="matrix(6.123233995736766e-17,-1,1,6.123233995736766e-17,2099.673406435198,953.3727593155552) translate(71.8333333333334 47.99999999999994)"/><path d="M2057.54 714.9V577.3" stroke="#3a414a" stroke-width="4" fill="none"/><path d="M2055.54 716.9v-2.04h4v2.05zM2059.54 577.36h-4v-2.86l2 .8 2-.8z" stroke="#3a414a" stroke-width=".05" fill="#3a414a"/><path d="M1620.73 1040.82c0 2.04-1.68 3.7-3.76 3.7s-3.76-1.66-3.76-3.7 1.7-3.7 3.77-3.7c2.08 0 3.76 1.66 3.76 3.7z" stroke="#3a414a" stroke-width="4"/><path d="M2057.54 955.37v79.45a6 6 0 0 1-6 6H1624.9" stroke="#3a414a" stroke-width="4" fill="none"/><path d="M2059.54 955.42h-4v-2.05h4zM1624.96 1042.82h-2.9l.85-2-.84-2h2.9z" stroke="#3a414a" stroke-width=".05" fill="#3a414a"/><g fill="none"><path d="M1281.42 953.37V716.9h120.38v236.47z"/><path d="M1341.6 953.37v-53.2l-18.04-11.83 36.1-17.73-36.1-17.73 36.1-17.73-36.1-17.74 36.1-17.73-36.1-17.74 36.1-17.73-18.05-11.82V716.9" stroke="#cc4e00" stroke-width="4"/></g><use xlink:href="#t" transform="matrix(6.123233995736766e-17,-1,1,6.123233995736766e-17,1383.7469995464444,953.3727593155552) translate(71.8333333333334 47.99999999999994)"/><path d="M1341.6 714.9v-71a6 6 0 0 0-6-6h-166.84a6 6 0 0 1-6-6v-21.68" stroke="#3a414a" stroke-width="4" fill="none"/><path d="M1339.6 716.9v-2.04h4v2.05zM1164.76 610.27h-4v-2.86l2 .82 2-.8z" stroke="#3a414a" stroke-width=".05" fill="#3a414a"/><path d="M1616.97 1032.96v-77.6" stroke="#3a414a" stroke-width="4" fill="none"/><path d="M1618.97 1035.78l-2-.82-2 .82v-2.87h4zM1618.97 955.42h-4v-2.05h4z" stroke="#3a414a" stroke-width=".05" fill="#3a414a"/><path d="M1341.6 955.37v36.34a6 6 0 0 0 6 6h227.2a6 6 0 0 1 6 6v31.12a6 6 0 0 0 6 6h22.24" stroke="#3a414a" stroke-width="4" fill="none"/><path d="M1343.6 955.42h-4v-2.05h4zM1611.04 1040.82l.84 2h-2.9v-4h2.9z" stroke="#3a414a" stroke-width=".05" fill="#3a414a"/><g stroke="#3a414a" stroke-width="4"><path d="M2494.26 1260.77c36.2 0 65.8 28.96 65.8 64.36s-29.6 64.37-65.8 64.37c-36.2 0-65.8-28.97-65.8-64.37 0-35.4 29.6-64.36 65.8-64.36zm-65.8 64.36H2412m148.06 0h16.45" fill="#fff"/><path d="M2527.16 1333.18v-16.1m-65.8 16.1v-16.1m-8.23 8.05h16.45" fill="none"/></g><use xlink:href="#e" transform="matrix(6.123233995736766e-17,-1,1,6.123233995736766e-17,2428.454722240255,1461.904547071726) translate(10.583333333333371 47.99999999999994)"/><path d="M2134.16 1271.5h219.35v107.27h-219.34z" fill="none"/><path d="M2134.16 1325.13h49.36l10.96-16.1 16.45 32.2 16.46-32.2 16.44 32.2 16.45-32.2 16.44 32.2 16.45-32.2 16.44 32.2 10.97-16.1h32.9" stroke="#1071e5" stroke-width="4" fill="none"/><use xlink:href="#u" transform="matrix(1,0,0,1,2134.16360957555,1362.677680529006) translate(75.00000000000004 47.99999999999994)"/><g fill="none"><path d="M2622.67 1378.77V1271.5h82.26v107.27z"/><path d="M2622.67 1325.13h16.45zm16.45 53.64V1271.5m16.46 16.1v75.08m16.45-16.1v-42.9m16.45 32.18v-21.45m16.45 5.37v10.73" stroke="#3a414a" stroke-width="4"/></g><path d="M2028.1 1616.88h109.66v80.45H2028.1z" fill="none"/><path d="M2082.93 1616.88v16.1zm-54.84 16.1h109.66m-16.45 16.08h-76.76m16.45 16.1h43.86m-32.9 16.08h21.93m-5.5 16.1h-10.96" stroke="#3a414a" stroke-width="4" fill="none"/><path d="M2146.93 1497.82c0 35.4-29.6 64.37-65.8 64.37-36.2 0-65.8-28.98-65.8-64.38 0-35.4 29.6-64.36 65.8-64.36 36.2 0 65.8 28.96 65.8 64.36zm-65.8-64.36v-16.1m0 144.83v16.08" stroke="#3a414a" stroke-width="4" fill="#fff"/><path d="M2081.13 1530v-57.92h3.3-6.6l3.3-6.44 3.3 6.44h-3.3" stroke="#3a414a" stroke-width="4" fill="none"/><use xlink:href="#v" transform="matrix(1,0,0,1,2138.7052226308847,1433.4597808332537) translate(6.500000000000043 47.99999999999994)"/><path d="M2084.55 1325.13c0 1.85-1.53 3.35-3.42 3.35-1.9 0-3.43-1.5-3.43-3.35s1.53-3.35 3.43-3.35c1.9 0 3.42 1.5 3.42 3.35z" stroke="#3a414a" stroke-width="4"/><path d="M2082.93 1616.88" stroke="#3a414a" stroke-width="4" fill="none"/><path stroke="#3a414a" stroke-width=".05" fill="#3a414a"/><path stroke="#3a414a" stroke-width=".05" fill="#3a414a"/><path d="M2620.67 1325.13h-42.18" stroke="#3a414a" stroke-width="4" fill="none"/><path d="M2622.67 1327.13h-2.05v-4h2.05zM2578.57 1327.13h-2.06v-4h2.07z" stroke="#3a414a" stroke-width=".05" fill="#3a414a"/><path d="M2410 1325.13H2355.5" stroke="#3a414a" stroke-width="4" fill="none"/><path d="M2412 1327.13h-2.05v-4h2.05zM2355.56 1327.13h-2.05v-4h2.06z" stroke="#3a414a" stroke-width=".05" fill="#3a414a"/><path d="M2353.5 1325.13" stroke="#3a414a" stroke-width="4" fill="none"/><path stroke="#3a414a" stroke-width=".05" fill="#3a414a"/><path stroke="#3a414a" stroke-width=".05" fill="#3a414a"/><path d="M2132.16 1325.13h-43.43" stroke="#3a414a" stroke-width="4" fill="none"/><path d="M2134.16 1327.13h-2.05v-4h2.06zM2088.78 1327.13h-2.9l.85-2-.85-2h2.9z" stroke="#3a414a" stroke-width=".05" fill="#3a414a"/><path d="M2081.13 1415.37v-82.73" stroke="#3a414a" stroke-width="4" fill="none"/><path d="M2083.13 1417.37h-4v3-5.05h4zM2081.13 1330.64l2-.8v2.85h-4v-2.87z" stroke="#3a414a" stroke-width=".05" fill="#3a414a"/><path d="M2081.13 1580.28v16.4a.9.9 0 0 0 .9.9.9.9 0 0 1 .9.9v16.4" stroke="#3a414a" stroke-width="4" fill="none"/><path d="M2079.13 1578.28h4v2.05h-4v-5.05zM2080.93 1616.88v-2.05h4v2.05z" stroke="#3a414a" stroke-width=".05" fill="#3a414a"/><path d="M1808.75 1271.5h219.34v107.27h-219.35z" fill="none"/><path d="M1808.75 1325.13h49.35l10.97-16.1 16.45 32.2 16.45-32.2 16.45 32.2 16.45-32.2 16.45 32.2 16.45-32.2 16.45 32.2 10.97-16.1h32.9" stroke="#ba23f6" stroke-width="4" fill="none"/><use xlink:href="#w" transform="matrix(1,0,0,1,1808.7455848173274,1362.677680529006) translate(63.33333333333339 47.99999999999994)"/><path d="M2030.1 1325.13h43.43" stroke="#3a414a" stroke-width="4" fill="none"/><path d="M2030.14 1327.13h-2.05v-4h2.04zM2075.53 1325.13l.84 2h-2.9v-4h2.9z" stroke="#3a414a" stroke-width=".05" fill="#3a414a"/><path d="M1806.75 1325.13h-183.78a6 6 0 0 1-6-6v-270.46" stroke="#3a414a" stroke-width="4" fill="none"/><path d="M1808.75 1327.13h-2.06v-4h2.05zM1616.97 1046.67l2-.8v2.85h-4v-2.86z" stroke="#3a414a" stroke-width=".05" fill="#3a414a"/><path d="M1166.52 1040.82c0 2.04-1.68 3.7-3.76 3.7s-3.76-1.66-3.76-3.7 1.68-3.7 3.76-3.7 3.76 1.66 3.76 3.7z" stroke="#3a414a" stroke-width="4"/><path d="M1162.76 955.37v77.6" stroke="#3a414a" stroke-width="4" fill="none"/><path d="M1164.76 955.42h-4v-2.05h4zM1164.76 1035.78l-2-.82-2 .82v-2.87h4z" stroke="#3a414a" stroke-width=".05" fill="#3a414a"/><g stroke="#3a414a" stroke-width="4"><path d="M401.12 1599.7c-36.2 0-65.8-28.96-65.8-64.36s29.6-64.36 65.8-64.36c36.2 0 65.8 28.96 65.8 64.36s-29.6 64.36-65.8 64.36zm65.8-64.36h16.45m-148.06 0h-16.44" fill="#fff"/><path d="M368.2 1527.3v16.1m65.82-16.1v16.1m8.22-8.06H425.8" fill="none"/></g><use xlink:href="#e" transform="matrix(6.123233995736766e-17,1,-1,6.123233995736766e-17,466.91984051103327,1591.6591856832406) translate(10.583333333333371 47.99999999999994)"/><path d="M565.63 1481.7h219.34v107.28H565.62z" fill="none"/><path d="M565.63 1535.34h49.35l10.97-16.1 16.45 32.2 16.45-32.2 16.45 32.2 16.45-32.2 16.45 32.2 16.45-32.2 16.45 32.2 10.97-16.1h32.9" stroke="#1071e5" stroke-width="4" fill="none"/><use xlink:href="#x" transform="matrix(1,0,0,1,565.6251276526733,1572.8865352562393) translate(75.00000000000004 47.99999999999994)"/><g fill="none"><path d="M264.03 1481.7v107.28h-82.26V1481.7z"/><path d="M264.03 1535.34h-16.46zm-16.46-53.64v107.28m-16.45-16.1v-75.08m-16.45 16.1v42.9m-16.45-32.2v21.47m-16.45-5.37v-10.72" stroke="#3a414a" stroke-width="4"/></g><path d="M784.97 1803.52h109.67v80.46H784.97z" fill="none"/><path d="M839.8 1803.52v16.1zm-54.83 16.1h109.67m-16.45 16.08H801.4m16.45 16.1h43.87m-32.9 16.1l21.93-.02m-5.48 16.1H834.3" stroke="#3a414a" stroke-width="4" fill="none"/><path d="M905.6 1669.43c0 35.4-29.6 64.37-65.8 64.37-36.18 0-65.8-28.97-65.8-64.37 0-35.4 29.62-64.36 65.8-64.36 36.2 0 65.8 28.96 65.8 64.36zm-65.8-64.36v-16.1m0 144.83v16.1" stroke="#3a414a" stroke-width="4" fill="#fff"/><path d="M839.8 1701.6v-57.9h3.3-6.58l3.3-6.45 3.28 6.44h-3.3" stroke="#3a414a" stroke-width="4" fill="none"/><use xlink:href="#y" transform="matrix(1,0,0,1,897.384564989853,1605.0682217025271) translate(6.500000000000043 47.99999999999994)"/><path d="M843.23 1535.34c0 1.85-1.53 3.35-3.42 3.35-1.9 0-3.42-1.5-3.42-3.36 0-1.85 1.53-3.35 3.43-3.35 1.9 0 3.43 1.5 3.43 3.34z" stroke="#3a414a" stroke-width="4"/><path d="M839.8 1803.52" stroke="#3a414a" stroke-width="4" fill="none"/><path stroke="#3a414a" stroke-width=".05" fill="#3a414a"/><path stroke="#3a414a" stroke-width=".05" fill="#3a414a"/><path d="M266.03 1535.34h50.83" stroke="#3a414a" stroke-width="4" fill="none"/><path d="M266.08 1537.34h-2.05v-4h2.05zM318.86 1537.34h-2.05v-4h2.06z" stroke="#3a414a" stroke-width=".05" fill="#3a414a"/><path d="M485.37 1535.34h78.25" stroke="#3a414a" stroke-width="4" fill="none"/><path d="M485.42 1537.34h-2.05v-4h2.05zM565.63 1537.34h-2.06v-4h2.05z" stroke="#3a414a" stroke-width=".05" fill="#3a414a"/><path d="M784.97 1535.34" stroke="#3a414a" stroke-width="4" fill="none"/><path stroke="#3a414a" stroke-width=".05" fill="#3a414a"/><path stroke="#3a414a" stroke-width=".05" fill="#3a414a"/><path d="M786.97 1535.34h45.24" stroke="#3a414a" stroke-width="4" fill="none"/><path d="M787.02 1537.34h-2.05v-4h2.05zM834.2 1535.34l.85 2h-2.9v-4h2.9z" stroke="#3a414a" stroke-width=".05" fill="#3a414a"/><path d="M839.8 1586.98v-44.13" stroke="#3a414a" stroke-width="4" fill="none"/><path d="M837.8 1588.98v-2.05h4v2.05zM839.8 1540.85l2-.8v2.85h-4v-2.86z" stroke="#3a414a" stroke-width=".05" fill="#3a414a"/><path d="M839.8 1751.9v49.62" stroke="#3a414a" stroke-width="4" fill="none"/><path d="M841.8 1751.94h-4v-2.05h4zM837.8 1803.52v-2.05h4v2.05z" stroke="#3a414a" stroke-width=".05" fill="#3a414a"/><path d="M922.06 1481.7h219.35v107.28H922.07z" fill="none"/><path d="M922.06 1535.34h49.35l10.98-16.1 16.45 32.2 16.45-32.2 16.45 32.2 16.45-32.2 16.45 32.2 16.46-32.2 16.44 32.2 10.96-16.1h32.9" stroke="#ba23f6" stroke-width="4" fill="none"/><use xlink:href="#z" transform="matrix(1,0,0,1,922.0608867752632,1572.8865352562393) translate(75.00000000000004 47.99999999999994)"/><path d="M920.06 1535.34H847.4" stroke="#3a414a" stroke-width="4" fill="none"/><path d="M922.06 1537.34H920v-4h2.06zM847.46 1537.34h-2.9l.85-2-.84-2h2.9z" stroke="#3a414a" stroke-width=".05" fill="#3a414a"/><path d="M1141.4 1533.34v-486.52a6 6 0 0 1 6-6h7.43" stroke="#3a414a" stroke-width="4" fill="none"/><path d="M1143.4 1538.34h-4v-1h2v-4h-2v-.05h4zM1156.83 1040.82l.84 2h-2.9v-4h2.9z" stroke="#3a414a" stroke-width=".05" fill="#3a414a"/><path d="M2115.9 56.26h102.16v77.72H2115.9z" fill="none"/><use xlink:href="#A" transform="matrix(1,0,0,1,2115.903627454698,56.26276541239464) translate(21.47884114583337 55.69335937499993)"/><path d="M2061.4 598.67h102.15v77.72H2061.4z" fill="none"/><use xlink:href="#B" transform="matrix(1,0,0,1,2061.3988445312157,598.6737904825392) translate(21.47884114583337 55.69335937499993)"/><path d="M2061.3 569.46c0 2.04-1.68 3.7-3.76 3.7s-3.76-1.66-3.76-3.7 1.68-3.7 3.76-3.7 3.76 1.66 3.76 3.7z" stroke="#3a414a" stroke-width="4"/><path d="M1620.73 581.6h102.16v77.72h-102.17z" fill="none"/><use xlink:href="#C" transform="matrix(1,0,0,1,1620.7339780266275,581.6067006522752) translate(21.47884114583337 55.69335937499993)"/><path d="M1152 493.16h102.15v77.7H1152z" fill="none"/><use xlink:href="#D" transform="matrix(1,0,0,1,1151.9972210030162,493.1578160475004) translate(21.47884114583337 55.69335937499993)"/><path d="M577.02 614.47h102.15v77.7H577.02z" fill="none"/><use xlink:href="#E" transform="matrix(1,0,0,1,577.0171762851826,614.4669306290359) translate(21.47884114583337 55.69335937499993)"/><path d="M802.44 1454.9H904.6v77.7H802.43z" fill="none"/><use xlink:href="#F" transform="matrix(1,0,0,1,802.4380324736151,1454.8870182865178) translate(21.47884114583337 55.69335937499993)"/><path d="M2084.55 1328.48h102.16v77.72h-102.15z" fill="none"/><use xlink:href="#G" transform="matrix(1,0,0,1,2084.5544053795684,1328.4846386798256) translate(21.47884114583337 55.69335937499993)"/><path d="M1152 970.76h102.15v77.7H1152z" fill="none"/><use xlink:href="#H" transform="matrix(1,0,0,1,1151.9972210030162,970.7609907012959) translate(21.47884114583337 55.69335937499993)"/><path d="M1638.9 959.47h102.14v77.72H1638.9z" fill="none"/><use xlink:href="#I" transform="matrix(1,0,0,1,1638.8880584758408,959.473114073381) translate(9.812174479166721 55.69335937499993)"/><path d="M1394.85 1548.8c0 1.86-1.53 3.36-3.42 3.36-1.9 0-3.43-1.5-3.43-3.35 0-1.84 1.53-3.34 3.43-3.34 1.9 0 3.42 1.5 3.42 3.35z" stroke="#3a414a" stroke-width="4"/><path d="M1354.06 1468.35h102.15v77.72h-102.14z" fill="none"/><use xlink:href="#J" transform="matrix(1,0,0,1,1354.0578316586175,1468.354122734815) translate(11.387174479166724 55.69335937499993)"/><g fill="none"><path d="M1216.3 1482.14v-236.47h120.38v236.47z"/><path d="M1276.5 1482.14v-53.2l-18.07-11.83 36.1-17.72-36.1-17.74 36.1-17.73-36.1-17.73 36.1-17.73-36.1-17.74 36.1-17.73-18.04-11.83v-35.47" stroke="#cc4e00" stroke-width="4"/></g><use xlink:href="#K" transform="matrix(6.123233995736766e-17,-1,1,6.123233995736766e-17,1318.6192427411258,1482.1381187233037) translate(71.8333333333334 47.99999999999994)"/><path d="M1276.48 1243.67V1077.6a6 6 0 0 0-6-6h-101.72a6 6 0 0 1-6-6v-16.93" stroke="#3a414a" stroke-width="4" fill="none"/><path d="M1274.48 1245.67v-2.05h4v2.05zM1164.76 1048.72h-4v-2.86l2 .8 2-.8z" stroke="#3a414a" stroke-width=".05" fill="#3a414a"/><g fill="none"><path d="M1427.47 1485.42v-236.46h120.4v236.46z"/><path d="M1487.66 1485.42v-53.2l-18.05-11.83 36.12-17.74-36.1-17.74 36.1-17.73-36.1-17.75 36.1-17.73-36.1-17.74 36.1-17.73-18.06-11.82v-35.47" stroke="#cc4e00" stroke-width="4"/></g><use xlink:href="#L" transform="matrix(6.123233995736766e-17,-1,1,6.123233995736766e-17,1529.7972878289197,1485.421212565079) translate(71.8333333333334 47.99999999999994)"/><path d="M1487.66 1487.42v55.4a6 6 0 0 1-6 6h-82.63" stroke="#3a414a" stroke-width="4" fill="none"/><path d="M1489.66 1487.47h-4v-2.05h4zM1399.08 1550.8h-2.9l.85-2-.85-2h2.9z" stroke="#3a414a" stroke-width=".05" fill="#3a414a"/><path d="M1276.48 1484.14v58.67a6 6 0 0 0 6 6h101.35" stroke="#3a414a" stroke-width="4" fill="none"/><path d="M1278.48 1484.2h-4v-2.06h4zM1385.83 1548.8l.84 2h-2.9v-4h2.9z" stroke="#3a414a" stroke-width=".05" fill="#3a414a"/><path d="M1487.66 1246.95v-36.33a6 6 0 0 1 6-6h90a6 6 0 0 0 6-6v-151.8a6 6 0 0 1 6-6h13.38" stroke="#3a414a" stroke-width="4" fill="none"/><path d="M1485.66 1248.95v-2.05h4v2.05zM1611.04 1040.82l.84 2h-2.9v-4h2.9z" stroke="#3a414a" stroke-width=".05" fill="#3a414a"/><path d="M1400.98 2282.65c0 35.55-29.5 64.63-65.54 64.63-36.04 0-65.53-29.08-65.53-64.63s29.5-64.63 65.54-64.63c36.05 0 65.54 29.1 65.54 64.63zm-65.54-64.63v-16.16m0 145.42v16.16" stroke="#3a414a" stroke-width="4" fill="#fff"/><path d="M1327.25 2314.97h16.38m-16.38-64.63h16.38m-8.2-8.08v16.15" stroke="#3a414a" stroke-width="4" fill="none"/><use xlink:href="#e" transform="matrix(1,0,0,1,1392.7843196239103,2218.0220913690778) translate(11.083333333333371 47.99999999999994)"/><g fill="none"><path d="M1390.05 1970.6v215.44h-109.22V1970.6z"/><path d="M1335.44 1970.6v48.48l16.4 10.77-32.78 16.16 32.77 16.16-32.77 16.16 32.77 16.16-32.77 16.16 32.77 16.15-32.77 16.15 16.38 10.77v32.32" stroke="#1071e5" stroke-width="4"/></g><use xlink:href="#M" transform="matrix(6.123233995736766e-17,1,-1,6.123233995736766e-17,1297.214407296618,1970.6079360563335) translate(73.00000000000004 47.99999999999994)"/><path d="M1280.83 2379.2h109.22v80.8h-109.22z" fill="none"/><path d="M1335.44 2379.2v16.17zm-54.6 16.17h109.2m-16.37 16.16h-76.46m16.4 16.16h43.7m-32.78 16.14h21.85m-5.47 16.16h-10.92" stroke="#3a414a" stroke-width="4" fill="none"/><g fill="none"><path d="M1099.76 1862.9v107.7h-81.9v-107.7z"/><path d="M1099.76 1916.75h-16.38zm-16.38-53.86v107.7m-16.38-16.15v-75.4m-16.4 16.16v43.1m-16.37-32.32v21.54m-16.38-5.38v-10.77" stroke="#3a414a" stroke-width="4"/></g><g stroke="#3a414a" stroke-width="4"><path d="M1200.1 1981.38c-36.04 0-65.53-29.08-65.53-64.63 0-35.54 29.5-64.63 65.53-64.63 36.05 0 65.54 29.1 65.54 64.63 0 35.55-29.5 64.63-65.54 64.63zm65.54-64.63h16.38m-147.45 0h-16.38" fill="#fff"/><path d="M1167.34 1916.75h58.98v3.23-6.46l6.55 3.23-6.55 3.23v-3.23" fill="none"/></g><use xlink:href="#N" transform="matrix(6.123233995736766e-17,1,-1,6.123233995736766e-17,1265.6370937012293,1779.415514422024) translate(5.500000000000043 47.99999999999994)"/><path d="M1338.87 1916.75c0 1.85-1.53 3.35-3.43 3.35-1.9 0-3.42-1.5-3.42-3.35s1.53-3.35 3.42-3.35c1.9 0 3.43 1.5 3.43 3.35z" stroke="#3a414a" stroke-width="4"/><path d="M1099.76 1916.75" stroke="#3a414a" stroke-width="4" fill="none"/><path stroke="#3a414a" stroke-width=".05" fill="#3a414a"/><path stroke="#3a414a" stroke-width=".05" fill="#3a414a"/><path d="M1335.44 2377.2v-11.76" stroke="#3a414a" stroke-width="4" fill="none"/><path d="M1333.44 2379.2v-2.04h4v2.05zM1333.44 2363.44h4v2.05h-4v-5.06z" stroke="#3a414a" stroke-width=".05" fill="#3a414a"/><path d="M1335.44 2199.86v-11.82" stroke="#3a414a" stroke-width="4" fill="none"/><path d="M1337.44 2201.86h-4v3-5.05h4zM1333.44 2186.04h4v2.05h-4v-5.06z" stroke="#3a414a" stroke-width=".05" fill="#3a414a"/><path d="M1335.44 2186.04" stroke="#3a414a" stroke-width="4" fill="none"/><path stroke="#3a414a" stroke-width=".05" fill="#3a414a"/><path stroke="#3a414a" stroke-width=".05" fill="#3a414a"/><path d="M1335.44 1968.6v-44.34" stroke="#3a414a" stroke-width="4" fill="none"/><path d="M1337.44 1970.6h-4v3-5.04h4zM1335.44 1922.26l2-.8v2.85h-4v-2.85z" stroke="#3a414a" stroke-width=".05" fill="#3a414a"/><path d="M1284.02 1916.75h43.82" stroke="#3a414a" stroke-width="4" fill="none"/><path d="M1284.07 1918.75h-2.05v-4h2.05zM1329.84 1916.75l.85 2h-2.9v-4h2.9z" stroke="#3a414a" stroke-width=".05" fill="#3a414a"/><path d="M1116.2 1916.75h-14.43" stroke="#3a414a" stroke-width="4" fill="none"/><path d="M1118.2 1918.75h-2.07v-4h2.06zM1101.8 1918.75h-2.04v-4h2.05z" stroke="#3a414a" stroke-width=".05" fill="#3a414a"/><g fill="none"><path d="M1391.24 1681.5v215.44h-109.22V1681.5z"/><path d="M1336.63 1681.5v48.5l16.38 10.76-32.75 16.15 32.76 16.17-32.75 16.16 32.76 16.16-32.75 16.14 32.76 16.16-32.75 16.16 16.38 10.77v32.3" stroke="#ba23f6" stroke-width="4"/></g><use xlink:href="#O" transform="matrix(6.123233995736766e-17,1,-1,6.123233995736766e-17,1396.7044020358014,1681.5140075493268) translate(62.908333333333395 47.99999999999994)"/><path d="M1391.24 1881.2h102.16v77.72h-102.16z" fill="none"/><use xlink:href="#P" transform="matrix(1,0,0,1,1391.243264188527,1881.2106721566695) translate(21.47884114583337 55.69335937499993)"/><path d="M1336.63 1679.5v-55.58a6 6 0 0 1 6-6h42.8a6 6 0 0 0 6-6v-55.6" stroke="#3a414a" stroke-width="4" fill="none"/><path d="M1334.63 1681.5v-2.04h4v2.05zM1393.43 1556.37h-4v-2.86l2 .82 2-.8z" stroke="#3a414a" stroke-width=".05" fill="#3a414a"/><path d="M1258.6 981.7h240.78v118.23H1258.6z" fill="none"/><path d="M1258.6 1040.82h54.18l12.04-17.74 18.06 35.47 18.06-35.47 18.05 35.47 18.05-35.47 18.06 35.47 18.07-35.47 18.05 35.47 12.04-17.73h36.12" stroke="#cc4e00" stroke-width="4" fill="none"/><use xlink:href="#Q" transform="matrix(1,0,0,1,1258.6104043567248,1082.19745424588) translate(73.8333333333334 47.99999999999994)"/><path d="M1256.6 1040.82h-85.9" stroke="#3a414a" stroke-width="4" fill="none"/><path d="M1258.6 1042.82h-2.04v-4h2.05zM1170.74 1042.82h-2.9l.85-2-.85-2h2.9z" stroke="#3a414a" stroke-width=".05" fill="#3a414a"/><path d="M1501.38 1040.82h107.66" stroke="#3a414a" stroke-width="4" fill="none"/><path d="M1501.43 1042.82h-2.05v-4h2.05z" stroke="#3a414a" stroke-width=".05" fill="#3a414a"/><path d="M1609 1040.82h2.04" stroke="#3a414a" stroke-width="4" fill="none"/><path d="M1786.34 181.57c0 35.55-29.5 64.63-65.53 64.63-36.04 0-65.53-29.08-65.53-64.63 0-35.54 29.5-64.63 65.54-64.63 36.05 0 65.54 29.1 65.54 64.63zm-65.53-64.63V100.8m0 145.4v16.16" stroke="#3a414a" stroke-width="4" fill="#fff"/><path d="M1712.6 213.88h16.4m-16.4-64.62h16.4m-8.2 56.55v16.16" stroke="#3a414a" stroke-width="4" fill="none"/><use xlink:href="#R" transform="matrix(1,0,0,1,1581.5461110794656,116.9426363216215) translate(11.083333333333371 47.99999999999994)"/><g fill="none"><path d="M1775.42 277.87V493.3H1666.2V277.86z"/><path d="M1720.8 277.87v48.47l16.4 10.77-32.78 16.17 32.77 16.15-32.78 16.16 32.77 16.16-32.78 16.15 32.77 16.15-32.78 16.16L1720.8 461v32.3" stroke="#e81313" stroke-width="4"/></g><use xlink:href="#S" transform="matrix(6.123233995736766e-17,1,-1,6.123233995736766e-17,1682.5771612540316,277.86555094605524) translate(61.33333333333339 47.99999999999994)"/><g fill="none"><path d="M1775.42 100.8H1666.2V20h109.22z"/><path d="M1720.8 100.8V84.62zm54.62-16.17H1666.2m16.38-16.16h76.45m-16.38-16.16h-43.7m32.78-16.14h-21.85m5.46-16.16h10.93" stroke="#3a414a" stroke-width="4"/></g><path d="M1720.8 100.8" stroke="#3a414a" stroke-width="4" fill="none"/><path stroke="#3a414a" stroke-width=".05" fill="#3a414a"/><path stroke="#3a414a" stroke-width=".05" fill="#3a414a"/><path d="M1720.8 264.36v11.51" stroke="#3a414a" stroke-width="4" fill="none"/><path d="M1722.8 264.4h-4v-2.04h4zM1722.8 277.87h-4v3-5.06h4z" stroke="#3a414a" stroke-width=".05" fill="#3a414a"/><path d="M1720.8 495.3v26.98a6 6 0 0 1-6 6h-91.83a6 6 0 0 0-6 6v26.98" stroke="#3a414a" stroke-width="4" fill="none"/><path d="M1718.8 493.3h4v2.05h-4v-5.06zM1618.97 564.08l-2-.82-2 .82v-2.87h4z" stroke="#3a414a" stroke-width=".05" fill="#3a414a"/><g stroke="#3a414a" stroke-width="4"><path d="M331.5 520.33c-36.2 0-65.8-28.96-65.8-64.36s29.6-64.36 65.8-64.36c36.2 0 65.8 28.97 65.8 64.37 0 35.4-29.6 64.36-65.8 64.36zm65.8-64.36h16.46m-148.06 0h-16.45" fill="#fff"/><path d="M298.6 447.92v16.1m65.8-16.1v16.1m8.23-8.05h-16.45" fill="none"/></g><use xlink:href="#T" transform="matrix(6.123233995736766e-17,1,-1,6.123233995736766e-17,397.3073256552532,319.19753376097606) translate(10.583333333333371 47.99999999999994)"/><path d="M496 402.33h219.36V509.6H496z" fill="none"/><path d="M496 455.97h49.37l10.96-16.1 16.45 32.2 16.45-32.2 16.45 32.2 16.46-32.2 16.45 32.2 16.44-32.2 16.45 32.2 10.96-16.1h32.9" stroke="#e81313" stroke-width="4" fill="none"/><use xlink:href="#U" transform="matrix(1,0,0,1,496.01261279689334,493.5150020117013) translate(63.33333333333339 47.99999999999994)"/><g fill="none"><path d="M194.4 402.33V509.6h-82.24V402.34z"/><path d="M194.4 455.97h-16.44zm-16.44-53.64V509.6m-16.45-16.1v-75.08m-16.44 16.1v42.9m-16.45-32.18v21.46m-16.44-5.37V450.6" stroke="#3a414a" stroke-width="4"/></g><path d="M196.4 455.97h50.85" stroke="#3a414a" stroke-width="4" fill="none"/><path d="M196.46 457.97h-2.05v-4h2.06zM249.25 457.97h-2.05v-4h2.05z" stroke="#3a414a" stroke-width=".05" fill="#3a414a"/><path d="M415.76 455.97H494" stroke="#3a414a" stroke-width="4" fill="none"/><path d="M415.8 457.97h-2.04v-4h2.05zM496 457.97h-2.04v-4H496z" stroke="#3a414a" stroke-width=".05" fill="#3a414a"/><path d="M717.36 455.97h28.1a6 6 0 0 1 6 6v69.3a6 6 0 0 0 6 6h399.3a6 6 0 0 1 6 6v51.25" stroke="#3a414a" stroke-width="4" fill="none"/><path d="M717.4 457.97h-2.04v-4h2.05zM1164.76 597.33l-2-.82-2 .83v-2.87h4z" stroke="#3a414a" stroke-width=".05" fill="#3a414a"/><g stroke="#3a414a" stroke-width="4"><path d="M2609.33 505.1c36.2 0 65.8 28.96 65.8 64.36s-29.6 64.36-65.8 64.36c-36.2 0-65.8-28.96-65.8-64.36s29.6-64.37 65.8-64.37zm-65.8 64.36h-16.45m148.05 0h16.45" fill="#fff"/><path d="M2642.23 577.5v-16.1m-65.8 16.1v-16.1m-8.23 8.06h16.45" fill="none"/></g><use xlink:href="#V" transform="matrix(6.123233995736766e-17,-1,1,6.123233995736766e-17,2543.5266620796124,513.1401137193066) translate(10.583333333333371 47.99999999999994)"/><path d="M2249.24 515.82h219.34V623.1h-219.34z" fill="none"/><path d="M2249.24 569.46h49.35l10.95-16.1 16.46 32.2 16.46-32.2 16.45 32.2 16.46-32.2 16.45 32.2 16.46-32.2 16.45 32.2 10.98-16.1h32.9" stroke="#e81313" stroke-width="4" fill="none"/><use xlink:href="#W" transform="matrix(1,0,0,1,2249.235549414906,607.0033658543127) translate(63.33333333333339 47.99999999999994)"/><g fill="none"><path d="M2708.53 623.1V515.8h82.25V623.1z"/><path d="M2708.53 569.46h16.45zm16.45 53.63V515.8m16.45 16.1V607m16.45-16.1V548m16.45 32.18v-21.45m16.45 5.36v10.72" stroke="#3a414a" stroke-width="4"/></g><path d="M2706.53 569.46h-12.94" stroke="#3a414a" stroke-width="4" fill="none"/><path d="M2708.53 571.46h-2.05v-4h2.05zM2693.64 571.46h-2.05v-4h2.04z" stroke="#3a414a" stroke-width=".05" fill="#3a414a"/><path d="M2525.08 569.46h-54.5" stroke="#3a414a" stroke-width="4" fill="none"/><path d="M2527.08 571.46h-2.06v-4h2.06zM2470.63 571.46h-2.05v-4h2.05z" stroke="#3a414a" stroke-width=".05" fill="#3a414a"/><path d="M2468.58 569.46" stroke="#3a414a" stroke-width="4" fill="none"/><path stroke="#3a414a" stroke-width=".05" fill="#3a414a"/><path stroke="#3a414a" stroke-width=".05" fill="#3a414a"/><path d="M2247.24 569.46h-181.77" stroke="#3a414a" stroke-width="4" fill="none"/><path d="M2249.24 571.46h-2.06v-4h2.06zM2065.52 571.46h-2.9l.85-2-.84-2h2.9z" stroke="#3a414a" stroke-width=".05" fill="#3a414a"/><g stroke="#3a414a" stroke-width="4"><path d="M2497.86 1026.46c36.2 0 65.8 28.96 65.8 64.36s-29.6 64.37-65.8 64.37c-36.2 0-65.8-28.98-65.8-64.38 0-35.4 29.6-64.36 65.8-64.36zm-65.8 64.36h-16.46m148.06 0h16.45" fill="#fff"/><path d="M2530.76 1098.87v-16.1m-65.8 16.1v-16.1m-8.23 8.05h16.45" fill="none"/></g><use xlink:href="#X" transform="matrix(6.123233995736766e-17,-1,1,6.123233995736766e-17,2432.054321287501,1034.5053476210642) translate(10.583333333333371 47.99999999999994)"/><path d="M2137.76 1037.2h219.35v107.26h-219.34z" fill="none"/><path d="M2137.76 1090.82h49.36l10.96-16.1 16.45 32.2 16.45-32.2 16.46 32.2 16.45-32.2 16.44 32.2 16.45-32.2 16.44 32.2 10.97-16.1h32.9" stroke="#e81313" stroke-width="4" fill="none"/><use xlink:href="#Y" transform="matrix(1,0,0,1,2137.7632086227945,1128.368599756071) translate(63.33333333333339 47.99999999999994)"/><g fill="none"><path d="M2626.27 1144.46V1037.2h82.26v107.26z"/><path d="M2626.27 1090.82h16.45zm16.45 53.64V1037.2m16.46 16.08v75.1m16.45-16.1v-42.9m16.45 32.17v-21.45m16.45 5.36v10.73" stroke="#3a414a" stroke-width="4"/></g><path d="M2624.27 1090.82h-42.18" stroke="#3a414a" stroke-width="4" fill="none"/><path d="M2626.27 1092.82h-2.05v-4h2.05zM2582.16 1092.82h-2.05v-4h2.07z" stroke="#3a414a" stroke-width=".05" fill="#3a414a"/><path d="M2413.6 1090.82H2359.1" stroke="#3a414a" stroke-width="4" fill="none"/><path d="M2415.6 1092.82h-2.05v-4h2.05zM2359.16 1092.82h-2.05v-4h2.06z" stroke="#3a414a" stroke-width=".05" fill="#3a414a"/><path d="M2357.1 1090.82" stroke="#3a414a" stroke-width="4" fill="none"/><path stroke="#3a414a" stroke-width=".05" fill="#3a414a"/><path stroke="#3a414a" stroke-width=".05" fill="#3a414a"/><path d="M2135.76 1090.82H1658a6 6 0 0 1-6-6v-38a6 6 0 0 0-6-6h-21.1" stroke="#3a414a" stroke-width="4" fill="none"/><path d="M2137.76 1092.82h-2.05v-4h2.06zM1624.96 1042.82h-2.9l.85-2-.84-2h2.9z" stroke="#3a414a" stroke-width=".05" fill="#3a414a"/><g stroke="#3a414a" stroke-width="4"><path d="M394.16 1406.26c-36.2 0-65.8-28.96-65.8-64.36s29.6-64.36 65.8-64.36c36.2 0 65.8 28.96 65.8 64.36s-29.6 64.36-65.8 64.36zm65.8-64.36h16.46m-148.06 0H311.9" fill="#fff"/><path d="M361.26 1333.86v16.1m65.8-16.1v16.1m8.23-8.06h-16.46" fill="none"/></g><use xlink:href="#Z" transform="matrix(6.123233995736766e-17,1,-1,6.123233995736766e-17,459.9677507984916,1205.1284396345518) translate(10.583333333333371 47.99999999999994)"/><path d="M558.67 1288.26h219.35v107.28H558.67z" fill="none"/><path d="M558.67 1341.9h49.36l10.96-16.1 16.44 32.2 16.45-32.2 16.45 32.2 16.45-32.2 16.45 32.2 16.45-32.2 16.45 32.2 10.97-16.1h32.9" stroke="#e81313" stroke-width="4" fill="none"/><use xlink:href="#aa" transform="matrix(1,0,0,1,558.6730379401315,1379.4459078852774) translate(63.33333333333339 47.99999999999994)"/><g fill="none"><path d="M257.07 1288.26v107.28h-82.25v-107.28z"/><path d="M257.07 1341.9h-16.45zm-16.45-53.64v107.28m-16.45-16.1v-75.08m-16.45 16.1v42.9m-16.45-32.2v21.47m-16.45-5.37v-10.72" stroke="#3a414a" stroke-width="4"/></g><path d="M259.07 1341.9h50.84" stroke="#3a414a" stroke-width="4" fill="none"/><path d="M259.13 1343.9h-2.06v-4h2.06zM311.9 1343.9h-2.04v-4h2.05z" stroke="#3a414a" stroke-width=".05" fill="#3a414a"/><path d="M478.42 1341.9h78.25" stroke="#3a414a" stroke-width="4" fill="none"/><path d="M478.47 1343.9h-2.05v-4h2.05zM558.67 1343.9h-2.05v-4h2.05z" stroke="#3a414a" stroke-width=".05" fill="#3a414a"/><path d="M780.02 1341.9h231.83a6 6 0 0 0 6-6v-304.92a6 6 0 0 1 6-6h89.77a6 6 0 0 1 6 6v3.84a6 6 0 0 0 6 6h29.2" stroke="#3a414a" stroke-width="4" fill="none"/><path d="M780.07 1343.9h-2.05v-4h2.05zM1156.83 1040.82l.84 2h-2.9v-4h2.9z" stroke="#3a414a" stroke-width=".05" fill="#3a414a"/><path d="M1336.63 1898.94v5.26a.1.1 0 0 1-.1.1.1.1 0 0 0-.1.1v5.25" stroke="#3a414a" stroke-width="4" fill="none"/><path d="M1338.63 1899h-4v-2.06h4zM1338.44 1912.46l-3-1.22-1 .4v-2.05h4z" stroke="#3a414a" stroke-width=".05" fill="#3a414a"/><path d="M1682.5 1987.4c0 35.56-29.48 64.64-65.53 64.64-36.04 0-65.53-29.08-65.53-64.63 0-35.53 29.5-64.6 65.53-64.6 36.05 0 65.54 29.07 65.54 64.6zm-65.53-64.6v-16.17m0 145.4v16.17" stroke="#3a414a" stroke-width="4" fill="#fff"/><path d="M1608.78 2019.73h16.38m-16.38-64.63h16.38m-8.2-8.08v16.16" stroke="#3a414a" stroke-width="4" fill="none"/><use xlink:href="#ab" transform="matrix(1,0,0,1,1674.3139644737291,1922.7858158733513) translate(11.083333333333371 47.99999999999994)"/><g fill="none"><path d="M1671.58 1675.37v215.43h-109.22v-215.43z"/><path d="M1616.97 1675.37v48.47l16.4 10.77-32.78 16.17 32.76 16.16-32.77 16.16 32.76 16.14-32.77 16.16 32.76 16.16-32.77 16.15 16.37 10.8v32.3" stroke="#e81313" stroke-width="4"/></g><use xlink:href="#ac" transform="matrix(6.123233995736766e-17,1,-1,6.123233995736766e-17,1578.7440521464368,1675.3716605606069) translate(61.33333333333339 47.99999999999994)"/><path d="M1562.36 2083.98h109.22v80.78h-109.22z" fill="none"/><path d="M1616.97 2083.98v16.16zm-54.6 16.16h109.2m-16.37 16.15h-76.46m16.4 16.15h43.68m-32.77 16.16h21.84m-5.47 16.16h-10.92M1616.97 2081.98V2070.2" stroke="#3a414a" stroke-width="4" fill="none"/><path d="M1614.97 2083.98v-2.05h4v2.05zM1618.97 2070.25h-4v-2.05h4z" stroke="#3a414a" stroke-width=".05" fill="#3a414a"/><path d="M1616.97 1904.63v-11.82" stroke="#3a414a" stroke-width="4" fill="none"/><path d="M1614.97 1906.63v-2.05h4v2.05zM1614.97 1890.8h4v2.05h-4v-5.05z" stroke="#3a414a" stroke-width=".05" fill="#3a414a"/><path d="M1616.97 1890.8" stroke="#3a414a" stroke-width="4" fill="none"/><path stroke="#3a414a" stroke-width=".05" fill="#3a414a"/><path stroke="#3a414a" stroke-width=".05" fill="#3a414a"/><path d="M1616.97 1673.37v-80.78a6 6 0 0 0-6-6h-213.54a6 6 0 0 1-6-6v-24.28" stroke="#3a414a" stroke-width="4" fill="none"/><path d="M1618.97 1675.37h-4v3-5.05h4zM1393.43 1556.37h-4v-2.86l2 .82 2-.8z" stroke="#3a414a" stroke-width=".05" fill="#3a414a"/><path d="M2869.83 523.95h242.5v110.48h-242.5z" fill="none"/><path d="M2869.83 579.2h54.56l12.12-16.58 18.2 33.14 18.18-33.14 18.18 33.14 18.2-33.14 18.18 33.14 18.2-33.14 18.18 33.14 12.12-16.57h36.38" stroke="#1071e5" stroke-width="4" fill="none"/><path d="M2869.48 699.32h242.5V809.8h-242.5z" fill="none"/><path d="M2869.48 754.56h54.57l12.12-16.57 18.2 33.13 18.18-33.14 18.2 33.13 18.18-33.14 18.18 33.13 18.2-33.14 18.2 33.13 12.12-16.57H3112" stroke="#ba23f6" stroke-width="4" fill="none"/><path d="M2860.62 1133.92h242.5v110.48h-242.5z" fill="none"/><path d="M2860.62 1189.16h54.56l12.13-16.57 18.2 33.13 18.18-33.14 18.2 33.13 18.18-33.14 18.2 33.13 18.18-33.14 18.18 33.13 12.13-16.57h36.38" stroke="#e81313" stroke-width="4" fill="none"/><path d="M2869.83 915.75h242.5v110.48h-242.5z" fill="none"/><path d="M2869.83 971h54.56l12.12-16.58 18.2 33.14 18.18-33.14 18.18 33.14 18.2-33.14 18.18 33.14 18.2-33.14 18.18 33.14 12.12-16.57h36.38" stroke="#cc4e00" stroke-width="4" fill="none"/><g stroke="#3a414a" stroke-width="4"><path d="M3007.53 1710.56c-31.92 0-58.04-23.75-58.04-52.8 0-29.03 26.1-52.8 58.03-52.8 31.92 0 58.04 23.77 58.04 52.8 0 29.05-26.12 52.8-58.04 52.8zm58.04-52.8h14.5m-130.58 0h-14.52" fill="#fff"/><path d="M2978.5 1651.17v13.2m58.05-13.2v13.2m7.25-6.6h-14.5" fill="none"/></g><use xlink:href="#ad" transform="matrix(6.123233995736766e-17,1,-1,6.123233995736766e-17,3065.5691439727284,1703.965046899145) translate(3.0833333333333712 47.99999999999994)"/><g fill="none"><path d="M2913.16 1613.77v88h-72.54v-88z"/><path d="M2913.16 1657.77h-14.5zm-14.5-44v88m-14.5-13.2v-61.6m-14.52 13.2v35.2m-14.5-26.4v17.6m-14.52-4.4v-8.8" stroke="#3a414a" stroke-width="4"/></g><path d="M2915.16 1657.77h17.82" stroke="#3a414a" stroke-width="4" fill="none"/><path d="M2915.22 1659.77h-5.06 3v-4h2.06zM2934.98 1659.77h-2.05v-4h2.05z" stroke="#3a414a" stroke-width=".05" fill="#3a414a"/><path d="M3082.08 1657.77h38-38" stroke="#3a414a" stroke-width="4" fill="none"/><path d="M3082.13 1659.77h-2.05v-4h2.05z" stroke="#3a414a" stroke-width=".05" fill="#3a414a"/><path d="M3082.13 1659.77h-2.05v-4h2.05z" stroke="#3a414a" stroke-width=".05" fill="#3a414a"/><path d="M2938.25 2025.77h96.73v66h-96.73z" fill="none"/><path d="M2986.62 2025.77v13.2zm-48.37 13.2h96.73m-14.5 13.2h-67.72m14.5 13.2h38.7m-29 13.2h19.33m-4.85 13.2h-9.67" stroke="#3a414a" stroke-width="4" fill="none"/><path d="M3044.66 1915.78c0 29.04-26.12 52.8-58.04 52.8-31.92 0-58.04-23.76-58.04-52.8 0-29.04 26.12-52.8 58.04-52.8 31.92 0 58.04 23.76 58.04 52.8zm-58.04-52.8v-13.2m0 118.8v13.2" stroke="#3a414a" stroke-width="4" fill="#fff"/><path d="M2986.62 1942.18v-47.52h2.9-5.8l2.9-5.28 2.9 5.28h-2.9" stroke="#3a414a" stroke-width="4" fill="none"/><use xlink:href="#g" transform="matrix(1,0,0,1,3037.4013215180757,1862.9807456765304) translate(1.5000000000000426 47.99999999999994)"/><path d="M2986.62 2025.77" stroke="#3a414a" stroke-width="4" fill="none"/><path stroke="#3a414a" stroke-width=".05" fill="#3a414a"/><path stroke="#3a414a" stroke-width=".05" fill="#3a414a"/><path d="M2986.62 1983.78v40" stroke="#3a414a" stroke-width="4" fill="none"/><path d="M2988.62 1983.83h-4v-2.05h4zM2984.62 2025.77v-2.05h4v2.05z" stroke="#3a414a" stroke-width=".05" fill="#3a414a"/><path d="M2983.7 1306.45v71.52M2983.7 1306.5v-2.05" stroke="#3a414a" stroke-width="4" fill="none"/><path d="M2985.7 1380.75l-2-.78-2 .78v-2.83h4z" stroke="#3a414a" stroke-width=".05" fill="#3a414a"/><path d="M2902.62 1385.3h73.3M2902.67 1385.3h-2.05" stroke="#3a414a" stroke-width="4" fill="none"/><path d="M2977.8 1385.57l.78 1.73h-2.7v-4h2.94z" stroke="#3a414a" stroke-width=".05" fill="#3a414a"/><path d="M2983.7 1462.45v-69.28M2983.7 1462.4v2.05" stroke="#3a414a" stroke-width="4" fill="none"/><path d="M2985.7 1393.22h-4v-2.83l2 .77 2-.78z" stroke="#3a414a" stroke-width=".05" fill="#3a414a"/><path d="M2987.5 1412.87h100.68v72.62H2987.5z" fill="none"/><use xlink:href="#ae" transform="matrix(1,0,0,1,2987.510907160089,1412.8704450926862) translate(20.47884114583337 55.69335937499993)"/><path d="M2987.4 1385.57c0 1.9-1.64 3.45-3.7 3.45-2.04 0-3.7-1.54-3.7-3.45 0-1.9 1.66-3.45 3.7-3.45 2.06 0 3.72 1.54 3.72 3.45z" stroke="#3a414a" stroke-width="4"/><path d="M3067.5 1385.57h-75.9M3067.46 1385.57h2.05" stroke="#3a414a" stroke-width="4" fill="none"/><path d="M2991.66 1387.57h-2.95l.9-2-.9-2h2.96z" stroke="#3a414a" stroke-width=".05" fill="#3a414a"/><path d="M3142.8 694.76h477.82V793h-477.8z" fill="none"/><use xlink:href="#af" transform="matrix(1,0,0,1,3142.813495633174,694.7598011873793) translate(0 42.66666666666667)"/><use xlink:href="#c" transform="matrix(1,0,0,1,3142.813495633174,694.7598011873793) translate(0 106.66666666666667)"/><use xlink:href="#ag" transform="matrix(1,0,0,1,3142.813495633174,694.7598011873793) translate(281.1851851851852 106.66666666666667)"/><path d="M3142.8 896.13h477.82v98.25h-477.8z" fill="none"/><use xlink:href="#c" transform="matrix(1,0,0,1,3142.813495633174,896.131807871225) translate(0 42.66666666666667)"/><use xlink:href="#ah" transform="matrix(1,0,0,1,3142.813495633174,896.131807871225) translate(281.1851851851852 42.66666666666667)"/><use xlink:href="#af" transform="matrix(1,0,0,1,3142.813495633174,896.131807871225) translate(0 106.66666666666667)"/><use xlink:href="#c" transform="matrix(1,0,0,1,3142.813495633174,896.131807871225) translate(0 170.66666666666669)"/><use xlink:href="#ag" transform="matrix(1,0,0,1,3142.813495633174,896.131807871225) translate(281.1851851851852 170.66666666666669)"/><path d="M3140.62 1146.47h477.8v98.25h-477.8z" fill="none"/><use xlink:href="#ai" transform="matrix(1,0,0,1,3140.6164682673298,1146.4713436052455) translate(0 60.16666666666667)"/><path d="M3142.8 1355.92h477.82v98.25h-477.8z" fill="none"/><g><use xlink:href="#aj" transform="matrix(1,0,0,1,3142.813495633174,1355.9218598064335) translate(0 60.16666666666667)"/><use xlink:href="#ak" transform="matrix(1,0,0,1,3142.813495633174,1355.9218598064335) translate(313.48148148148147 60.16666666666667)"/></g><path d="M3142.8 1613.77h515.55v98.25H3142.8z" fill="none"/><g><use xlink:href="#aj" transform="matrix(1,0,0,1,3142.813495633174,1613.769199478969) translate(0 60.16666666666667)"/><use xlink:href="#al" transform="matrix(1,0,0,1,3142.813495633174,1613.769199478969) translate(313.48148148148147 60.16666666666667)"/></g><path d="M3140.62 1878.95h477.8v98.25h-477.8z" fill="none"/><g><use xlink:href="#am" transform="matrix(1,0,0,1,3140.6164682673298,1878.955008906481) translate(0 60.16666666666667)"/><use xlink:href="#an" transform="matrix(1,0,0,1,3140.6164682673298,1878.955008906481) translate(126.96296296296296 60.16666666666667)"/></g><path d="M2820 306a6 6 0 0 1 6-6h826.35a6 6 0 0 1 6 6v1804.93a6 6 0 0 1-6 6H2826a6 6 0 0 1-6-6z" stroke="#000" stroke-width="7" fill-opacity="0"/><defs><path fill="#3a414a" d="M30 0v-248h33v221h125V0H30" id="ao"/><path fill="#3a414a" d="M100-194c63 0 86 42 84 106H49c0 40 14 67 53 68 26 1 43-12 49-29l28 8c-11 28-37 45-77 45C44 4 14-33 15-96c1-61 26-98 85-98zm52 81c6-60-76-77-97-28-3 7-6 17-6 28h103" id="ap"/><path fill="#3a414a" d="M177-190C167-65 218 103 67 71c-23-6-38-20-44-43l32-5c15 47 100 32 89-28v-30C133-14 115 1 83 1 29 1 15-40 15-95c0-56 16-97 71-98 29-1 48 16 59 35 1-10 0-23 2-32h30zM94-22c36 0 50-32 50-73 0-42-14-75-50-75-39 0-46 34-46 75s6 73 46 73" id="aq"/><path fill="#3a414a" d="M117-194c89-4 53 116 60 194h-32v-121c0-31-8-49-39-48C34-167 62-67 57 0H25l-1-190h30c1 10-1 24 2 32 11-22 29-35 61-36" id="ar"/><path fill="#3a414a" d="M85-194c31 0 48 13 60 33l-1-100h32l1 261h-30c-2-10 0-23-3-31C134-8 116 4 85 4 32 4 16-35 15-94c0-66 23-100 70-100zm9 24c-40 0-46 34-46 75 0 40 6 74 45 74 42 0 51-32 51-76 0-42-9-74-50-73" id="as"/><g id="a"><use transform="matrix(0.30864197530864196,0,0,0.30864197530864196,0,0)" xlink:href="#ao"/><use transform="matrix(0.30864197530864196,0,0,0.30864197530864196,61.72839506172839,0)" xlink:href="#ap"/><use transform="matrix(0.30864197530864196,0,0,0.30864197530864196,123.45679012345678,0)" xlink:href="#aq"/><use transform="matrix(0.30864197530864196,0,0,0.30864197530864196,185.18518518518516,0)" xlink:href="#ap"/><use transform="matrix(0.30864197530864196,0,0,0.30864197530864196,246.91358024691357,0)" xlink:href="#ar"/><use transform="matrix(0.30864197530864196,0,0,0.30864197530864196,308.641975308642,0)" xlink:href="#as"/></g><path fill="#202122" d="M945-710H308c10 199 38 341 84 426 57 104 136 156 235 156 100 0 178-52 233-157 49-92 77-234 85-425zm-3-170c-19-189-46-317-82-384-57-105-135-158-233-158-102 0-180 52-234 156-43 84-70 213-83 386h632zm-315-692c160 0 286 71 377 212s137 336 137 585-46 444-137 585C913-48 787 23 627 23c-161 0-286-71-377-213S113-526 113-775s46-444 137-585 216-212 377-212" id="at"/><path fill="#3a414a" d="M101-251c68 0 85 55 85 127S166 4 100 4C33 4 14-52 14-124c0-73 17-127 87-127zm-1 229c47 0 54-49 54-102s-4-102-53-102c-51 0-55 48-55 102 0 53 5 102 54 102" id="au"/><g id="b"><use transform="matrix(0.029296874999999962,0,0,0.029296874999999962,0,0)" xlink:href="#at"/><use transform="matrix(0.11666666666666652,0,0,0.11666666666666652,36.70898437499995,8.39999999999999)" xlink:href="#au"/></g><path fill="#3a414a" d="M212-179c-10-28-35-45-73-45-59 0-87 40-87 99 0 60 29 101 89 101 43 0 62-24 78-52l27 14C228-24 195 4 139 4 59 4 22-46 18-125c-6-104 99-153 187-111 19 9 31 26 39 46" id="av"/><path fill="#3a414a" d="M100-194c62-1 85 37 85 99 1 63-27 99-86 99S16-35 15-95c0-66 28-99 85-99zM99-20c44 1 53-31 53-75 0-43-8-75-51-75s-53 32-53 75 10 74 51 75" id="aw"/><path fill="#3a414a" d="M108 0H70L1-190h34L89-25l56-165h34" id="ax"/><path fill="#3a414a" d="M96-169c-40 0-48 33-48 73s9 75 48 75c24 0 41-14 43-38l32 2c-6 37-31 61-74 61-59 0-76-41-82-99-10-93 101-131 147-64 4 7 5 14 7 22l-32 3c-4-21-16-35-41-35" id="ay"/><path fill="#3a414a" d="M59-47c-2 24 18 29 38 22v24C64 9 27 4 27-40v-127H5v-23h24l9-43h21v43h35v23H59v120" id="az"/><path fill="#3a414a" d="M24-231v-30h32v30H24zM24 0v-190h32V0H24" id="aA"/><g id="c"><use transform="matrix(0.14814814814814817,0,0,0.14814814814814817,0,0)" xlink:href="#av"/><use transform="matrix(0.14814814814814817,0,0,0.14814814814814817,38.370370370370374,0)" xlink:href="#aw"/><use transform="matrix(0.14814814814814817,0,0,0.14814814814814817,68,0)" xlink:href="#ar"/><use transform="matrix(0.14814814814814817,0,0,0.14814814814814817,97.62962962962962,0)" xlink:href="#ax"/><use transform="matrix(0.14814814814814817,0,0,0.14814814814814817,124.29629629629632,0)" xlink:href="#ap"/><use transform="matrix(0.14814814814814817,0,0,0.14814814814814817,153.92592592592592,0)" xlink:href="#ay"/><use transform="matrix(0.14814814814814817,0,0,0.14814814814814817,180.5925925925926,0)" xlink:href="#az"/><use transform="matrix(0.14814814814814817,0,0,0.14814814814814817,195.40740740740742,0)" xlink:href="#aA"/><use transform="matrix(0.14814814814814817,0,0,0.14814814814814817,207.11111111111111,0)" xlink:href="#aw"/><use transform="matrix(0.14814814814814817,0,0,0.14814814814814817,236.74074074074076,0)" xlink:href="#ar"/></g><path fill="#3a414a" d="M84 4C-5 8 30-112 23-190h32v120c0 31 7 50 39 49 72-2 45-101 50-169h31l1 190h-30c-1-10 1-25-2-33-11 22-28 36-60 37" id="aB"/><path fill="#3a414a" d="M114-163C36-179 61-72 57 0H25l-1-190h30c1 12-1 29 2 39 6-27 23-49 58-41v29" id="aC"/><g id="d"><use transform="matrix(0.14814814814814817,0,0,0.14814814814814817,0,0)" xlink:href="#aw"/><use transform="matrix(0.14814814814814817,0,0,0.14814814814814817,29.629629629629633,0)" xlink:href="#aB"/><use transform="matrix(0.14814814814814817,0,0,0.14814814814814817,59.25925925925927,0)" xlink:href="#az"/><use transform="matrix(0.14814814814814817,0,0,0.14814814814814817,74.07407407407408,0)" xlink:href="#as"/><use transform="matrix(0.14814814814814817,0,0,0.14814814814814817,103.70370370370372,0)" xlink:href="#aw"/><use transform="matrix(0.14814814814814817,0,0,0.14814814814814817,133.33333333333334,0)" xlink:href="#aw"/><use transform="matrix(0.14814814814814817,0,0,0.14814814814814817,162.962962962963,0)" xlink:href="#aC"/></g><path fill="#3a414a" d="M127-220V0H93v-220H8v-28h204v28h-85" id="aD"/><g id="e"><use transform="matrix(0.16666666666666646,0,0,0.16666666666666646,0,0)" xlink:href="#aD"/><use transform="matrix(0.11666666666666652,0,0,0.11666666666666652,36.49999999999996,8.39999999999999)" xlink:href="#au"/></g><path fill="#3a414a" d="M143 4C61 4 22-44 18-125c-5-107 100-154 193-111 17 8 29 25 37 43l-32 9c-13-25-37-40-76-40-61 0-88 39-88 99 0 61 29 100 91 101 35 0 62-11 79-27v-45h-74v-28h105v86C228-13 192 4 143 4" id="aE"/><path fill="#3a414a" d="M101-251c82-7 93 87 43 132L82-64C71-53 59-42 53-27h129V0H18c2-99 128-94 128-182 0-28-16-43-45-43s-46 15-49 41l-32-3c6-41 34-60 81-64" id="aF"/><g id="f"><use transform="matrix(0.16666666666666646,0,0,0.16666666666666646,0,0)" xlink:href="#aE"/><use transform="matrix(0.11666666666666652,0,0,0.11666666666666652,46.66666666666661,8.39999999999999)" xlink:href="#aF"/></g><path fill="#3a414a" d="M140-251c81 0 123 46 123 126C263-53 228-8 163 1c7 30 30 48 69 40v23c-55 16-95-15-103-61C56-3 17-48 17-125c0-80 42-126 123-126zm0 227c63 0 89-41 89-101s-29-99-89-99c-61 0-89 39-89 99S79-25 140-24" id="aG"/><path fill="#3a414a" d="M27 0v-27h64v-190l-56 39v-29l58-41h29v221h61V0H27" id="aH"/><g id="g"><use transform="matrix(0.16666666666666646,0,0,0.16666666666666646,0,0)" xlink:href="#aG"/><use transform="matrix(0.11666666666666652,0,0,0.11666666666666652,46.66666666666661,8.39999999999999)" xlink:href="#aH"/></g><path fill="#3a414a" d="M134-131c28 9 52 24 51 62-1 50-34 73-85 73S17-19 16-69c0-36 21-54 49-61-75-25-45-126 34-121 46 3 78 18 79 63 0 33-17 51-44 57zm-34-11c31 1 46-15 46-44 0-28-17-43-47-42-29 0-46 13-45 42 1 28 16 44 46 44zm1 122c35 0 51-18 51-52 0-30-18-46-53-46-33 0-51 17-51 47 0 34 19 51 53 51" id="aI"/><g id="h"><use transform="matrix(0.16666666666666646,0,0,0.16666666666666646,0,0)" xlink:href="#aE"/><use transform="matrix(0.11666666666666652,0,0,0.11666666666666652,46.66666666666661,8.39999999999999)" xlink:href="#aI"/></g><g id="i"><use transform="matrix(0.16666666666666646,0,0,0.16666666666666646,0,0)" xlink:href="#aE"/><use transform="matrix(0.11666666666666652,0,0,0.11666666666666652,46.66666666666661,8.39999999999999)" xlink:href="#aH"/><use transform="matrix(0.11666666666666652,0,0,0.11666666666666652,69.99999999999991,8.39999999999999)" xlink:href="#aF"/></g><path fill="#3a414a" d="M155-56V0h-30v-56H8v-25l114-167h33v167h35v25h-35zm-30-156c-27 46-58 90-88 131h88v-131" id="aJ"/><g id="j"><use transform="matrix(0.16666666666666646,0,0,0.16666666666666646,0,0)" xlink:href="#aE"/><use transform="matrix(0.11666666666666652,0,0,0.11666666666666652,46.66666666666661,8.39999999999999)" xlink:href="#aH"/><use transform="matrix(0.11666666666666652,0,0,0.11666666666666652,69.99999999999991,8.39999999999999)" xlink:href="#aJ"/></g><path fill="#3a414a" d="M126-127c33 6 58 20 58 59 0 88-139 92-164 29-3-8-5-16-6-25l32-3c6 27 21 44 54 44 32 0 52-15 52-46 0-38-36-46-79-43v-28c39 1 72-4 72-42 0-27-17-43-46-43-28 0-47 15-49 41l-32-3c6-42 35-63 81-64 48-1 79 21 79 65 0 36-21 52-52 59" id="aK"/><g id="k"><use transform="matrix(0.16666666666666646,0,0,0.16666666666666646,0,0)" xlink:href="#aE"/><use transform="matrix(0.11666666666666652,0,0,0.11666666666666652,46.66666666666661,8.39999999999999)" xlink:href="#aH"/><use transform="matrix(0.11666666666666652,0,0,0.11666666666666652,69.99999999999991,8.39999999999999)" xlink:href="#aK"/></g><path fill="#3a414a" d="M110-160c48 1 74 30 74 79 0 53-28 85-80 85-65 0-83-55-86-122-5-90 50-162 133-122 14 7 22 21 27 39l-31 6c-5-40-67-38-82-6-9 19-15 44-15 74 11-20 30-34 60-33zm-7 138c34 0 49-23 49-58s-16-56-50-56c-29 0-50 16-49 49 1 36 15 65 50 65" id="aL"/><g id="l"><use transform="matrix(0.16666666666666646,0,0,0.16666666666666646,0,0)" xlink:href="#aE"/><use transform="matrix(0.11666666666666652,0,0,0.11666666666666652,46.66666666666661,8.39999999999999)" xlink:href="#aH"/><use transform="matrix(0.11666666666666652,0,0,0.11666666666666652,69.99999999999991,8.39999999999999)" xlink:href="#aL"/></g><g id="m"><use transform="matrix(0.16666666666666646,0,0,0.16666666666666646,0,0)" xlink:href="#aE"/><use transform="matrix(0.11666666666666652,0,0,0.11666666666666652,46.66666666666661,8.39999999999999)" xlink:href="#au"/></g><g id="n"><use transform="matrix(0.16666666666666646,0,0,0.16666666666666646,0,0)" xlink:href="#aG"/><use transform="matrix(0.11666666666666652,0,0,0.11666666666666652,46.66666666666661,8.39999999999999)" xlink:href="#aF"/></g><g id="o"><use transform="matrix(0.16666666666666646,0,0,0.16666666666666646,0,0)" xlink:href="#aE"/><use transform="matrix(0.11666666666666652,0,0,0.11666666666666652,46.66666666666661,8.39999999999999)" xlink:href="#aL"/></g><g id="p"><use transform="matrix(0.16666666666666646,0,0,0.16666666666666646,0,0)" xlink:href="#aE"/><use transform="matrix(0.11666666666666652,0,0,0.11666666666666652,46.66666666666661,8.39999999999999)" xlink:href="#aH"/></g><g id="q"><use transform="matrix(0.16666666666666646,0,0,0.16666666666666646,0,0)" xlink:href="#aG"/><use transform="matrix(0.11666666666666652,0,0,0.11666666666666652,46.66666666666661,8.39999999999999)" xlink:href="#aK"/></g><path fill="#3a414a" d="M64 0c3-98 48-159 88-221H18v-27h164v26C143-157 98-101 97 0H64" id="aM"/><g id="r"><use transform="matrix(0.16666666666666646,0,0,0.16666666666666646,0,0)" xlink:href="#aE"/><use transform="matrix(0.11666666666666652,0,0,0.11666666666666652,46.66666666666661,8.39999999999999)" xlink:href="#aM"/></g><g id="s"><use transform="matrix(0.16666666666666646,0,0,0.16666666666666646,0,0)" xlink:href="#aE"/><use transform="matrix(0.11666666666666652,0,0,0.11666666666666652,46.66666666666661,8.39999999999999)" xlink:href="#aH"/><use transform="matrix(0.11666666666666652,0,0,0.11666666666666652,69.99999999999991,8.39999999999999)" xlink:href="#aM"/></g><path fill="#3a414a" d="M54-142c48-35 137-8 131 61C196 18 31 33 14-55l32-4c7 23 22 37 52 37 35-1 51-22 54-58 4-55-73-65-99-34H22l8-134h141v27H59" id="aN"/><g id="t"><use transform="matrix(0.16666666666666646,0,0,0.16666666666666646,0,0)" xlink:href="#aE"/><use transform="matrix(0.11666666666666652,0,0,0.11666666666666652,46.66666666666661,8.39999999999999)" xlink:href="#aH"/><use transform="matrix(0.11666666666666652,0,0,0.11666666666666652,69.99999999999991,8.39999999999999)" xlink:href="#aN"/></g><g id="u"><use transform="matrix(0.16666666666666646,0,0,0.16666666666666646,0,0)" xlink:href="#aE"/><use transform="matrix(0.11666666666666652,0,0,0.11666666666666652,46.66666666666661,8.39999999999999)" xlink:href="#aJ"/></g><g id="v"><use transform="matrix(0.16666666666666646,0,0,0.16666666666666646,0,0)" xlink:href="#aG"/><use transform="matrix(0.11666666666666652,0,0,0.11666666666666652,46.66666666666661,8.39999999999999)" xlink:href="#aN"/></g><g id="w"><use transform="matrix(0.16666666666666646,0,0,0.16666666666666646,0,0)" xlink:href="#aE"/><use transform="matrix(0.11666666666666652,0,0,0.11666666666666652,46.66666666666661,8.39999999999999)" xlink:href="#aH"/><use transform="matrix(0.11666666666666652,0,0,0.11666666666666652,69.99999999999991,8.39999999999999)" xlink:href="#au"/></g><g id="x"><use transform="matrix(0.16666666666666646,0,0,0.16666666666666646,0,0)" xlink:href="#aE"/><use transform="matrix(0.11666666666666652,0,0,0.11666666666666652,46.66666666666661,8.39999999999999)" xlink:href="#aK"/></g><g id="y"><use transform="matrix(0.16666666666666646,0,0,0.16666666666666646,0,0)" xlink:href="#aG"/><use transform="matrix(0.11666666666666652,0,0,0.11666666666666652,46.66666666666661,8.39999999999999)" xlink:href="#aJ"/></g><path fill="#3a414a" d="M99-251c64 0 84 50 84 122C183-37 130 33 47-8c-14-7-20-23-25-40l30-5c6 39 69 39 84 7 9-19 16-44 16-74-10 22-31 35-62 35-49 0-73-33-73-83 0-54 28-83 82-83zm-1 141c31-1 51-18 51-49 0-36-14-67-51-67-34 0-49 23-49 58 0 34 15 58 49 58" id="aO"/><g id="z"><use transform="matrix(0.16666666666666646,0,0,0.16666666666666646,0,0)" xlink:href="#aE"/><use transform="matrix(0.11666666666666652,0,0,0.11666666666666652,46.66666666666661,8.39999999999999)" xlink:href="#aO"/></g><g id="A"><use transform="matrix(0.029296874999999962,0,0,0.029296874999999962,0,0)" xlink:href="#at"/><use transform="matrix(0.11666666666666652,0,0,0.11666666666666652,36.70898437499995,8.39999999999999)" xlink:href="#aH"/></g><g id="B"><use transform="matrix(0.029296874999999962,0,0,0.029296874999999962,0,0)" xlink:href="#at"/><use transform="matrix(0.11666666666666652,0,0,0.11666666666666652,36.70898437499995,8.39999999999999)" xlink:href="#aI"/></g><g id="C"><use transform="matrix(0.029296874999999962,0,0,0.029296874999999962,0,0)" xlink:href="#at"/><use transform="matrix(0.11666666666666652,0,0,0.11666666666666652,36.70898437499995,8.39999999999999)" xlink:href="#aM"/></g><g id="D"><use transform="matrix(0.029296874999999962,0,0,0.029296874999999962,0,0)" xlink:href="#at"/><use transform="matrix(0.11666666666666652,0,0,0.11666666666666652,36.70898437499995,8.39999999999999)" xlink:href="#aL"/></g><g id="E"><use transform="matrix(0.029296874999999962,0,0,0.029296874999999962,0,0)" xlink:href="#at"/><use transform="matrix(0.11666666666666652,0,0,0.11666666666666652,36.70898437499995,8.39999999999999)" xlink:href="#aF"/></g><g id="F"><use transform="matrix(0.029296874999999962,0,0,0.029296874999999962,0,0)" xlink:href="#at"/><use transform="matrix(0.11666666666666652,0,0,0.11666666666666652,36.70898437499995,8.39999999999999)" xlink:href="#aK"/></g><g id="G"><use transform="matrix(0.029296874999999962,0,0,0.029296874999999962,0,0)" xlink:href="#at"/><use transform="matrix(0.11666666666666652,0,0,0.11666666666666652,36.70898437499995,8.39999999999999)" xlink:href="#aJ"/></g><g id="H"><use transform="matrix(0.029296874999999962,0,0,0.029296874999999962,0,0)" xlink:href="#at"/><use transform="matrix(0.11666666666666652,0,0,0.11666666666666652,36.70898437499995,8.39999999999999)" xlink:href="#aO"/></g><g id="I"><use transform="matrix(0.029296874999999962,0,0,0.029296874999999962,0,0)" xlink:href="#at"/><use transform="matrix(0.11666666666666652,0,0,0.11666666666666652,36.70898437499995,8.39999999999999)" xlink:href="#aH"/><use transform="matrix(0.11666666666666652,0,0,0.11666666666666652,60.04231770833326,8.39999999999999)" xlink:href="#au"/></g><g id="J"><use transform="matrix(0.029296874999999962,0,0,0.029296874999999962,0,0)" xlink:href="#at"/><use transform="matrix(0.11666666666666652,0,0,0.11666666666666652,36.70898437499995,8.39999999999999)" xlink:href="#aH"/><use transform="matrix(0.11666666666666652,0,0,0.11666666666666652,56.89231770833325,8.39999999999999)" xlink:href="#aH"/></g><g id="K"><use transform="matrix(0.16666666666666646,0,0,0.16666666666666646,0,0)" xlink:href="#aE"/><use transform="matrix(0.11666666666666652,0,0,0.11666666666666652,46.66666666666661,8.39999999999999)" xlink:href="#aH"/><use transform="matrix(0.11666666666666652,0,0,0.11666666666666652,69.99999999999991,8.39999999999999)" xlink:href="#aO"/></g><g id="L"><use transform="matrix(0.16666666666666646,0,0,0.16666666666666646,0,0)" xlink:href="#aE"/><use transform="matrix(0.11666666666666652,0,0,0.11666666666666652,46.66666666666661,8.39999999999999)" xlink:href="#aF"/><use transform="matrix(0.11666666666666652,0,0,0.11666666666666652,69.99999999999991,8.39999999999999)" xlink:href="#au"/></g><g id="M"><use transform="matrix(0.16666666666666646,0,0,0.16666666666666646,0,0)" xlink:href="#aE"/><use transform="matrix(0.11666666666666652,0,0,0.11666666666666652,46.66666666666661,8.39999999999999)" xlink:href="#aN"/></g><g id="N"><use transform="matrix(0.16666666666666646,0,0,0.16666666666666646,0,0)" xlink:href="#aG"/><use transform="matrix(0.11666666666666652,0,0,0.11666666666666652,46.66666666666661,8.39999999999999)" xlink:href="#aL"/></g><g id="O"><use transform="matrix(0.16666666666666646,0,0,0.16666666666666646,0,0)" xlink:href="#aE"/><use transform="matrix(0.11666666666666652,0,0,0.11666666666666652,46.66666666666661,8.39999999999999)" xlink:href="#aH"/><use transform="matrix(0.11666666666666652,0,0,0.11666666666666652,66.84999999999991,8.39999999999999)" xlink:href="#aH"/></g><g id="P"><use transform="matrix(0.029296874999999962,0,0,0.029296874999999962,0,0)" xlink:href="#at"/><use transform="matrix(0.11666666666666652,0,0,0.11666666666666652,36.70898437499995,8.39999999999999)" xlink:href="#aN"/></g><g id="Q"><use transform="matrix(0.16666666666666646,0,0,0.16666666666666646,0,0)" xlink:href="#aE"/><use transform="matrix(0.11666666666666652,0,0,0.11666666666666652,46.66666666666661,8.39999999999999)" xlink:href="#aH"/><use transform="matrix(0.11666666666666652,0,0,0.11666666666666652,69.99999999999991,8.39999999999999)" xlink:href="#aI"/></g><g id="R"><use transform="matrix(0.16666666666666646,0,0,0.16666666666666646,0,0)" xlink:href="#aD"/><use transform="matrix(0.11666666666666652,0,0,0.11666666666666652,36.49999999999996,8.39999999999999)" xlink:href="#aF"/></g><g id="S"><use transform="matrix(0.16666666666666646,0,0,0.16666666666666646,0,0)" xlink:href="#aE"/><use transform="matrix(0.11666666666666652,0,0,0.11666666666666652,46.66666666666661,8.39999999999999)" xlink:href="#aF"/><use transform="matrix(0.11666666666666652,0,0,0.11666666666666652,69.99999999999991,8.39999999999999)" xlink:href="#aH"/></g><g id="T"><use transform="matrix(0.16666666666666646,0,0,0.16666666666666646,0,0)" xlink:href="#aD"/><use transform="matrix(0.11666666666666652,0,0,0.11666666666666652,36.49999999999996,8.39999999999999)" xlink:href="#aH"/></g><g id="U"><use transform="matrix(0.16666666666666646,0,0,0.16666666666666646,0,0)" xlink:href="#aE"/><use transform="matrix(0.11666666666666652,0,0,0.11666666666666652,46.66666666666661,8.39999999999999)" xlink:href="#aF"/><use transform="matrix(0.11666666666666652,0,0,0.11666666666666652,69.99999999999991,8.39999999999999)" xlink:href="#aF"/></g><g id="V"><use transform="matrix(0.16666666666666646,0,0,0.16666666666666646,0,0)" xlink:href="#aD"/><use transform="matrix(0.11666666666666652,0,0,0.11666666666666652,36.49999999999996,8.39999999999999)" xlink:href="#aK"/></g><g id="W"><use transform="matrix(0.16666666666666646,0,0,0.16666666666666646,0,0)" xlink:href="#aE"/><use transform="matrix(0.11666666666666652,0,0,0.11666666666666652,46.66666666666661,8.39999999999999)" xlink:href="#aF"/><use transform="matrix(0.11666666666666652,0,0,0.11666666666666652,69.99999999999991,8.39999999999999)" xlink:href="#aK"/></g><g id="X"><use transform="matrix(0.16666666666666646,0,0,0.16666666666666646,0,0)" xlink:href="#aD"/><use transform="matrix(0.11666666666666652,0,0,0.11666666666666652,36.49999999999996,8.39999999999999)" xlink:href="#aN"/></g><g id="Y"><use transform="matrix(0.16666666666666646,0,0,0.16666666666666646,0,0)" xlink:href="#aE"/><use transform="matrix(0.11666666666666652,0,0,0.11666666666666652,46.66666666666661,8.39999999999999)" xlink:href="#aF"/><use transform="matrix(0.11666666666666652,0,0,0.11666666666666652,69.99999999999991,8.39999999999999)" xlink:href="#aN"/></g><g id="Z"><use transform="matrix(0.16666666666666646,0,0,0.16666666666666646,0,0)" xlink:href="#aD"/><use transform="matrix(0.11666666666666652,0,0,0.11666666666666652,36.49999999999996,8.39999999999999)" xlink:href="#aJ"/></g><g id="aa"><use transform="matrix(0.16666666666666646,0,0,0.16666666666666646,0,0)" xlink:href="#aE"/><use transform="matrix(0.11666666666666652,0,0,0.11666666666666652,46.66666666666661,8.39999999999999)" xlink:href="#aF"/><use transform="matrix(0.11666666666666652,0,0,0.11666666666666652,69.99999999999991,8.39999999999999)" xlink:href="#aJ"/></g><g id="ab"><use transform="matrix(0.16666666666666646,0,0,0.16666666666666646,0,0)" xlink:href="#aD"/><use transform="matrix(0.11666666666666652,0,0,0.11666666666666652,36.49999999999996,8.39999999999999)" xlink:href="#aL"/></g><g id="ac"><use transform="matrix(0.16666666666666646,0,0,0.16666666666666646,0,0)" xlink:href="#aE"/><use transform="matrix(0.11666666666666652,0,0,0.11666666666666652,46.66666666666661,8.39999999999999)" xlink:href="#aF"/><use transform="matrix(0.11666666666666652,0,0,0.11666666666666652,69.99999999999991,8.39999999999999)" xlink:href="#aL"/></g><g id="ad"><use transform="matrix(0.16666666666666646,0,0,0.16666666666666646,0,0)" xlink:href="#aD"/><use transform="matrix(0.11666666666666652,0,0,0.11666666666666652,36.49999999999996,8.39999999999999)" xlink:href="#au"/></g><g id="ae"><use transform="matrix(0.029296874999999962,0,0,0.029296874999999962,0,0)" xlink:href="#at"/><use transform="matrix(0.11666666666666652,0,0,0.11666666666666652,36.70898437499995,8.39999999999999)" xlink:href="#au"/></g><g id="af"><use transform="matrix(0.14814814814814817,0,0,0.14814814814814817,0,0)" xlink:href="#av"/><use transform="matrix(0.14814814814814817,0,0,0.14814814814814817,38.370370370370374,0)" xlink:href="#aw"/><use transform="matrix(0.14814814814814817,0,0,0.14814814814814817,68,0)" xlink:href="#ar"/><use transform="matrix(0.14814814814814817,0,0,0.14814814814814817,97.62962962962962,0)" xlink:href="#as"/><use transform="matrix(0.14814814814814817,0,0,0.14814814814814817,127.25925925925925,0)" xlink:href="#aB"/><use transform="matrix(0.14814814814814817,0,0,0.14814814814814817,156.8888888888889,0)" xlink:href="#ay"/><use transform="matrix(0.14814814814814817,0,0,0.14814814814814817,183.5555555555556,0)" xlink:href="#az"/><use transform="matrix(0.14814814814814817,0,0,0.14814814814814817,198.3703703703704,0)" xlink:href="#aA"/><use transform="matrix(0.14814814814814817,0,0,0.14814814814814817,210.0740740740741,0)" xlink:href="#aw"/><use transform="matrix(0.14814814814814817,0,0,0.14814814814814817,239.70370370370372,0)" xlink:href="#ar"/></g><g id="ag"><use transform="matrix(0.14814814814814817,0,0,0.14814814814814817,0,0)" xlink:href="#aA"/><use transform="matrix(0.14814814814814817,0,0,0.14814814814814817,11.703703703703706,0)" xlink:href="#ar"/><use transform="matrix(0.14814814814814817,0,0,0.14814814814814817,41.333333333333336,0)" xlink:href="#as"/><use transform="matrix(0.14814814814814817,0,0,0.14814814814814817,70.96296296296298,0)" xlink:href="#aw"/><use transform="matrix(0.14814814814814817,0,0,0.14814814814814817,100.59259259259261,0)" xlink:href="#aw"/><use transform="matrix(0.14814814814814817,0,0,0.14814814814814817,130.22222222222223,0)" xlink:href="#aC"/></g><g id="ah"><use transform="matrix(0.14814814814814817,0,0,0.14814814814814817,0,0)" xlink:href="#aA"/><use transform="matrix(0.14814814814814817,0,0,0.14814814814814817,11.703703703703706,0)" xlink:href="#ar"/><use transform="matrix(0.14814814814814817,0,0,0.14814814814814817,41.333333333333336,0)" xlink:href="#as"/><use transform="matrix(0.14814814814814817,0,0,0.14814814814814817,70.96296296296298,0)" xlink:href="#aw"/><use transform="matrix(0.14814814814814817,0,0,0.14814814814814817,100.59259259259261,0)" xlink:href="#aw"/><use transform="matrix(0.14814814814814817,0,0,0.14814814814814817,130.22222222222223,0)" xlink:href="#aC"/></g><path fill="#3a414a" d="M24 0v-261h32V0H24" id="aP"/><g id="ai"><use transform="matrix(0.14814814814814817,0,0,0.14814814814814817,0,0)" xlink:href="#av"/><use transform="matrix(0.14814814814814817,0,0,0.14814814814814817,38.370370370370374,0)" xlink:href="#aw"/><use transform="matrix(0.14814814814814817,0,0,0.14814814814814817,68,0)" xlink:href="#ar"/><use transform="matrix(0.14814814814814817,0,0,0.14814814814814817,97.62962962962962,0)" xlink:href="#az"/><use transform="matrix(0.14814814814814817,0,0,0.14814814814814817,112.44444444444446,0)" xlink:href="#aC"/><use transform="matrix(0.14814814814814817,0,0,0.14814814814814817,130.07407407407408,0)" xlink:href="#aw"/><use transform="matrix(0.14814814814814817,0,0,0.14814814814814817,159.7037037037037,0)" xlink:href="#aP"/><use transform="matrix(0.14814814814814817,0,0,0.14814814814814817,171.4074074074074,0)" xlink:href="#aP"/><use transform="matrix(0.14814814814814817,0,0,0.14814814814814817,183.11111111111111,0)" xlink:href="#ap"/><use transform="matrix(0.14814814814814817,0,0,0.14814814814814817,212.7407407407407,0)" xlink:href="#aC"/></g><path fill="#3a414a" d="M210-169c-67 3-38 105-44 169h-31v-121c0-29-5-50-35-48C34-165 62-65 56 0H25l-1-190h30c1 10-1 24 2 32 10-44 99-50 107 0 11-21 27-35 58-36 85-2 47 119 55 194h-31v-121c0-29-5-49-35-48" id="aQ"/><path fill="#3a414a" d="M115-194c55 1 70 41 70 98S169 2 115 4C84 4 66-9 55-30l1 105H24l-1-265h31l2 30c10-21 28-34 59-34zm-8 174c40 0 45-34 45-75s-6-73-45-74c-42 0-51 32-51 76 0 43 10 73 51 73" id="aR"/><path fill="#3a414a" d="M141-36C126-15 110 5 73 4 37 3 15-17 15-53c-1-64 63-63 125-63 3-35-9-54-41-54-24 1-41 7-42 31l-33-3c5-37 33-52 76-52 45 0 72 20 72 64v82c-1 20 7 32 28 27v20c-31 9-61-2-59-35zM48-53c0 20 12 33 32 33 41-3 63-29 60-74-43 2-92-5-92 41" id="aS"/><g id="aj"><use transform="matrix(0.14814814814814817,0,0,0.14814814814814817,0,0)" xlink:href="#aD"/><use transform="matrix(0.14814814814814817,0,0,0.14814814814814817,26.518518518518523,0)" xlink:href="#ap"/><use transform="matrix(0.14814814814814817,0,0,0.14814814814814817,56.14814814814815,0)" xlink:href="#aQ"/><use transform="matrix(0.14814814814814817,0,0,0.14814814814814817,100.44444444444446,0)" xlink:href="#aR"/><use transform="matrix(0.14814814814814817,0,0,0.14814814814814817,130.07407407407408,0)" xlink:href="#ap"/><use transform="matrix(0.14814814814814817,0,0,0.14814814814814817,159.7037037037037,0)" xlink:href="#aC"/><use transform="matrix(0.14814814814814817,0,0,0.14814814814814817,177.33333333333331,0)" xlink:href="#aS"/><use transform="matrix(0.14814814814814817,0,0,0.14814814814814817,206.96296296296293,0)" xlink:href="#az"/><use transform="matrix(0.14814814814814817,0,0,0.14814814814814817,221.77777777777774,0)" xlink:href="#aB"/><use transform="matrix(0.14814814814814817,0,0,0.14814814814814817,251.40740740740742,0)" xlink:href="#aC"/><use transform="matrix(0.14814814814814817,0,0,0.14814814814814817,269.037037037037,0)" xlink:href="#ap"/></g><path fill="#3a414a" d="M135-143c-3-34-86-38-87 0 15 53 115 12 119 90S17 21 10-45l28-5c4 36 97 45 98 0-10-56-113-15-118-90-4-57 82-63 122-42 12 7 21 19 24 35" id="aT"/><g id="ak"><use transform="matrix(0.14814814814814817,0,0,0.14814814814814817,0,0)" xlink:href="#ar"/><use transform="matrix(0.14814814814814817,0,0,0.14814814814814817,29.629629629629633,0)" xlink:href="#aw"/><use transform="matrix(0.14814814814814817,0,0,0.14814814814814817,59.25925925925927,0)" xlink:href="#as"/><use transform="matrix(0.14814814814814817,0,0,0.14814814814814817,88.8888888888889,0)" xlink:href="#aT"/></g><g id="al"><use transform="matrix(0.14814814814814817,0,0,0.14814814814814817,0,0)" xlink:href="#aT"/><use transform="matrix(0.14814814814814817,0,0,0.14814814814814817,26.66666666666667,0)" xlink:href="#aw"/><use transform="matrix(0.14814814814814817,0,0,0.14814814814814817,56.296296296296305,0)" xlink:href="#aB"/><use transform="matrix(0.14814814814814817,0,0,0.14814814814814817,85.92592592592594,0)" xlink:href="#aC"/><use transform="matrix(0.14814814814814817,0,0,0.14814814814814817,103.55555555555557,0)" xlink:href="#ay"/><use transform="matrix(0.14814814814814817,0,0,0.14814814814814817,130.22222222222223,0)" xlink:href="#ap"/><use transform="matrix(0.14814814814814817,0,0,0.14814814814814817,159.85185185185185,0)" xlink:href="#aT"/></g><path fill="#3a414a" d="M63-220v92h138v28H63V0H30v-248h175v28H63" id="aU"/><path fill="#3a414a" d="M206 0h-36l-40-164L89 0H53L-1-190h32L70-26l43-164h34l41 164 42-164h31" id="aV"/><g id="am"><use transform="matrix(0.14814814814814817,0,0,0.14814814814814817,0,0)" xlink:href="#aU"/><use transform="matrix(0.14814814814814817,0,0,0.14814814814814817,32.44444444444445,0)" xlink:href="#aP"/><use transform="matrix(0.14814814814814817,0,0,0.14814814814814817,44.14814814814815,0)" xlink:href="#aw"/><use transform="matrix(0.14814814814814817,0,0,0.14814814814814817,73.77777777777779,0)" xlink:href="#aV"/></g><g id="an"><use transform="matrix(0.14814814814814817,0,0,0.14814814814814817,0,0)" xlink:href="#aC"/><use transform="matrix(0.14814814814814817,0,0,0.14814814814814817,17.629629629629633,0)" xlink:href="#aS"/><use transform="matrix(0.14814814814814817,0,0,0.14814814814814817,47.25925925925927,0)" xlink:href="#az"/><use transform="matrix(0.14814814814814817,0,0,0.14814814814814817,62.07407407407408,0)" xlink:href="#ap"/><use transform="matrix(0.14814814814814817,0,0,0.14814814814814817,91.70370370370371,0)" xlink:href="#aT"/></g></defs></g></svg>